<svg width="15" height="10" viewBox="0 0 15 10" fill="none" xmlns="http://www.w3.org/2000/svg">
<path d="M14.9998 0H0V10H14.9998V0Z" fill="#F0F0F0"/>
<path d="M14.9998 1.25H0V2.49988H14.9998V1.25Z" fill="#D80027"/>
<path d="M14.9998 3.75H0V4.99988H14.9998V3.75Z" fill="#D80027"/>
<path d="M14.9998 6.24951H0V7.49939H14.9998V6.24951Z" fill="#D80027"/>
<path d="M14.9998 8.74951H0V9.99939H14.9998V8.74951Z" fill="#D80027"/>
<path d="M7.49992 0H0V5.38462H7.49992V0Z" fill="#2E52B2"/>
<path d="M2.92457 2.20605L2.80378 2.57765H2.41309L2.72923 2.80719L2.60844 3.17876L2.92457 2.94922L3.24051 3.17876L3.11975 2.80719L3.43589 2.57765H3.04516L2.92457 2.20605Z" fill="#F0F0F0"/>
<path d="M3.04516 3.91844L2.92457 3.54688L2.80378 3.91844H2.41309L2.72923 4.14801L2.60844 4.51958L2.92457 4.29001L3.24051 4.51958L3.11975 4.14801L3.43589 3.91844H3.04516Z" fill="#F0F0F0"/>
<path d="M1.39382 3.91844L1.27321 3.54688L1.15242 3.91844H0.761719L1.07786 4.14801L0.957068 4.51958L1.27321 4.29001L1.58917 4.51958L1.46841 4.14801L1.78449 3.91844H1.39382Z" fill="#F0F0F0"/>
<path d="M1.27321 2.20605L1.15242 2.57765H0.761719L1.07786 2.80719L0.957068 3.17876L1.27321 2.94922L1.58917 3.17876L1.46841 2.80719L1.78449 2.57765H1.39382L1.27321 2.20605Z" fill="#F0F0F0"/>
<path d="M2.92457 0.864746L2.80378 1.23637H2.41309L2.72923 1.46594L2.60844 1.83751L2.92457 1.60794L3.24051 1.83751L3.11975 1.46594L3.43589 1.23637H3.04516L2.92457 0.864746Z" fill="#F0F0F0"/>
<path d="M1.27321 0.865234L1.15242 1.23686H0.761719L1.07786 1.46643L0.957068 1.838L1.27321 1.60843L1.58917 1.838L1.46841 1.46643L1.78449 1.23686H1.39382L1.27321 0.865234Z" fill="#F0F0F0"/>
<path d="M4.57591 2.20605L4.45515 2.57765H4.06445L4.38056 2.80719L4.25983 3.17876L4.57591 2.94922L4.8919 3.17876L4.77112 2.80719L5.08725 2.57765H4.69656L4.57591 2.20605Z" fill="#F0F0F0"/>
<path d="M4.69656 3.91844L4.57591 3.54688L4.45515 3.91844H4.06445L4.38056 4.14801L4.25983 4.51958L4.57591 4.29001L4.8919 4.51958L4.77112 4.14801L5.08725 3.91844H4.69656Z" fill="#F0F0F0"/>
<path d="M6.34789 3.91844L6.22728 3.54688L6.10649 3.91844H5.71582L6.0319 4.14801L5.91114 4.51958L6.22728 4.29001L6.54324 4.51958L6.42245 4.14801L6.73859 3.91844H6.34789Z" fill="#F0F0F0"/>
<path d="M6.22728 2.20605L6.10649 2.57765H5.71582L6.0319 2.80719L5.91114 3.17876L6.22728 2.94922L6.54324 3.17876L6.42245 2.80719L6.73859 2.57765H6.34789L6.22728 2.20605Z" fill="#F0F0F0"/>
<path d="M4.57591 0.864746L4.45515 1.23637H4.06445L4.38056 1.46594L4.25983 1.83751L4.57591 1.60794L4.8919 1.83751L4.77112 1.46594L5.08725 1.23637H4.69656L4.57591 0.864746Z" fill="#F0F0F0"/>
<path d="M6.22728 0.864746L6.10649 1.23637H5.71582L6.0319 1.46594L5.91114 1.83751L6.22728 1.60794L6.54324 1.83751L6.42245 1.46594L6.73859 1.23637H6.34789L6.22728 0.864746Z" fill="#F0F0F0"/>
</svg>
