<svg width="25" height="17" fill="none" xmlns="http://www.w3.org/2000/svg"><path d="M23.128.31H1.872A1.872 1.872 0 000 2.184v12.635c0 1.034.838 1.872 1.872 1.872h21.256A1.872 1.872 0 0025 14.818V2.183A1.872 1.872 0 0023.128.31z" fill="#FF4B55"/><path d="M4.15 2.872l.412 1.232 1.298.01a.175.175 0 01.103.316L4.918 5.2 5.31 6.44a.175.175 0 01-.269.196l-1.056-.756-1.057.756a.175.175 0 01-.269-.196l.392-1.238-1.045-.771a.175.175 0 01.103-.316l1.299-.01.41-1.232a.175.175 0 01.333 0zM8.867 3.176l.295.401.475-.148a.067.067 0 01.075.103l-.291.404.288.406a.067.067 0 01-.075.103l-.475-.152-.297.4a.067.067 0 01-.121-.04l-.002-.498-.472-.16a.067.067 0 010-.126l.473-.157.006-.498c0-.064.083-.09.121-.038zM7.073 1.978l.495.053.212-.45a.067.067 0 01.126.014l.102.488.495.061a.067.067 0 01.025.125l-.433.248.095.489a.067.067 0 01-.111.062l-.37-.334-.436.24a.067.067 0 01-.093-.086l.204-.454-.364-.34c-.047-.045-.011-.123.053-.116zM7.856 6.806l-.294.402-.476-.148a.067.067 0 00-.074.103l.29.404-.288.406a.067.067 0 00.076.103l.474-.152.297.4c.039.052.121.025.121-.04l.003-.498.472-.16a.067.067 0 000-.126l-.474-.157-.005-.498a.067.067 0 00-.122-.039zM9.65 5.68l-.495.055-.212-.452a.067.067 0 00-.126.015l-.102.488-.494.061a.067.067 0 00-.025.125l.432.248-.094.489a.067.067 0 00.11.062l.37-.334.436.24a.067.067 0 00.094-.086l-.205-.454.364-.34a.067.067 0 00-.053-.116z" fill="#FFE15A"/></svg>