<svg width="50" height="50" fill="none" xmlns="http://www.w3.org/2000/svg"><path d="M49.167 45h-2.5V29.167a.833.833 0 00-1.516-.478L33.484 45.356a.833.833 0 00.683 1.31H45v2.5a.833.833 0 001.667 0v-2.5h2.5a.833.833 0 000-1.666zM45 45h-9.233L45 31.81V45z" fill="#C4935C"/><path d="M34.167 48.334H24.3l9.172-10.801c.021-.025.04-.051.059-.078a5.797 5.797 0 00-1.309-7.87A6.667 6.667 0 0021.667 35a.833.833 0 001.666 0 5 5 0 017.917-4.061 4.114 4.114 0 01.917 5.554L21.865 48.628A.833.833 0 0022.5 50h11.667a.833.833 0 000-1.666z" fill="#C4935C"/><path d="M22.518 44.182a.833.833 0 00-.801-.864c-10.872-.403-19.598-9.113-20.021-19.985H5a.833.833 0 000-1.666H1.696c.417-10.852 9.119-19.554 19.97-19.97v2.47a.833.833 0 001.667 0v-2.47c10.704.414 19.343 8.89 19.96 19.583l-3.25-3.25a.833.833 0 00-1.178 1.178l4.652 4.652a.82.82 0 00.328.24c.033.009.066.017.1.023a.82.82 0 00.176.043h.047a.802.802 0 00.187-.037.8.8 0 00.102-.019.821.821 0 00.3-.188l4.715-4.714a.833.833 0 00-1.178-1.178l-3.33 3.328C44.367 9.414 34.518.03 22.558.012 22.54.01 22.521 0 22.5 0c-.02 0-.038.01-.06.012C10.06.029.03 10.06.013 22.44c0 .02-.012.038-.012.059 0 .02.01.038.012.06.02 12.074 9.577 21.975 21.643 22.424h.03a.833.833 0 00.833-.802z" fill="#C4935C"/><path d="M33.696 11.304a.833.833 0 00-1.178 0l-8.956 8.954a2.61 2.61 0 00-2.125 0l-4.24-4.24a.833.833 0 00-1.179 1.178l4.232 4.232a2.496 2.496 0 004.017 2.84 2.473 2.473 0 00.482-2.839l8.947-8.947a.833.833 0 000-1.178zM23.089 23.089a.852.852 0 01-1.178 0 .833.833 0 111.178 0z" fill="#C4935C"/></svg>