<svg width="33" height="30" fill="none" xmlns="http://www.w3.org/2000/svg"><path d="M32.788 20.687a.652.652 0 00.023-.432l-2.706-8.76V3.41C30.105 1.53 28.568 0 26.682 0H6.152a3.418 3.418 0 00-3.418 3.41v8.084L.028 20.255a.651.651 0 00.023.432 2.02 2.02 0 00-.051.45V29.318c0 .376.35.682.727.682s.726-.306.726-.682V27.27h30.021v2.047a.685.685 0 001.37 0V21.137c0-.158-.024-.306-.056-.45zM4.103 3.41c0-1.128.922-2.047 2.054-2.047h20.525c1.132 0 2.054.92 2.054 2.047v7.498h-1.859l-.638-2.542a2.047 2.047 0 00-1.993-1.55H19.84a2.054 2.054 0 00-2.054 2.046v2.046h-2.738V8.868a2.053 2.053 0 00-2.054-2.047H8.588c-.94 0-1.76.64-1.993 1.55l-.638 2.538H4.103V3.411zm21.368 8.598a.683.683 0 01-.54.26h-5.09a.684.684 0 01-.685-.682V8.863c0-.376.307-.682.684-.682h4.406c.317 0 .587.213.666.515l.685 2.729a.678.678 0 01-.126.584zM13.683 8.863v2.729a.68.68 0 01-.684.677h-5.09a.678.678 0 01-.666-.845l.684-2.728a.683.683 0 01.666-.515h4.406c.377 0 .684.306.684.682zm-9.762 3.41H5.98c.075.205.168.4.307.58.396.502.983.785 1.621.785h5.09c.89 0 1.645-.57 1.929-1.364h2.99a2.047 2.047 0 001.928 1.364h5.09a2.06 2.06 0 001.621-.784c.14-.176.233-.376.307-.58h2.064l2.114 6.844c-.08-.009-.158-.023-.238-.023H2.05c-.084 0-.158.014-.237.023l2.11-6.844zm27.553 13.634H1.364v-4.77c0-.376.308-.682.685-.682h28.74c.378 0 .685.306.685.682v4.77z" fill="#C4935C"/></svg>