<svg width="48" height="30" fill="none" xmlns="http://www.w3.org/2000/svg"><path d="M22.882 20.687a.654.654 0 00.023-.432l-2.696-8.76V3.41c0-1.88-1.532-3.411-3.41-3.411H6.128a3.412 3.412 0 00-3.405 3.41v8.084L.028 20.255a.653.653 0 00.023.432 2.026 2.026 0 00-.051.45V29.318c0 .376.348.682.724.682s.724-.306.724-.682V27.27h20.125v2.047a.683.683 0 001.364 0V21.137a2.344 2.344 0 00-.055-.45zM4.088 3.41a2.05 2.05 0 012.047-2.047h10.668a2.05 2.05 0 012.046 2.047v7.498h-2.96l-.636-2.542a2.04 2.04 0 00-1.986-1.55H9.675c-.937 0-1.754.64-1.986 1.55l-.64 2.542h-2.96V3.411zm10.288 8.598a.695.695 0 01-.548.265H9.095a.702.702 0 01-.547-.265.685.685 0 01-.126-.594l.692-2.76a.695.695 0 01.673-.525h3.355a.69.69 0 01.672.524l.692 2.761a.69.69 0 01-.13.594zm-10.469.265h3.16c.075.204.167.399.307.58.394.501.979.784 1.614.784h4.956a2.05 2.05 0 001.615-.784c.14-.176.232-.376.306-.58h3.156l2.107 6.844c-.08-.009-.158-.023-.237-.023H2.041c-.083 0-.157.014-.236.023l2.102-6.844zm17.661 13.633H1.36v-4.77c0-.376.306-.682.682-.682H20.89c.376 0 .682.306.682.682v4.77h-.005zM47.703 20.687a.654.654 0 00.023-.432l-2.696-8.76V3.41C45.03 1.53 43.5 0 41.62 0H30.955a3.416 3.416 0 00-3.41 3.41v8.084l-2.697 8.761a.654.654 0 00.023.432 2.025 2.025 0 00-.05.45V29.318c0 .376.347.682.723.682s.724-.306.724-.682V27.27h20.125v2.047a.683.683 0 001.365 0V21.137a2.03 2.03 0 00-.056-.45zM28.909 3.41a2.05 2.05 0 012.047-2.047h10.663a2.05 2.05 0 012.047 2.047v7.498h-2.96l-.637-2.542a2.04 2.04 0 00-1.986-1.55h-3.591c-.938 0-1.754.64-1.986 1.55l-.636 2.538h-2.96V3.41zm10.293 8.598a.695.695 0 01-.548.265h-4.738a.702.702 0 01-.547-.265.684.684 0 01-.125-.594l.691-2.76a.695.695 0 01.673-.525H37.963a.69.69 0 01.673.524l.691 2.761a.703.703 0 01-.125.594zm-10.473.265h3.16c.074.204.167.399.306.58.394.501.979.784 1.615.784h4.956a2.05 2.05 0 001.614-.784c.14-.176.232-.376.307-.58h3.16l2.106 6.844c-.078-.009-.157-.023-.236-.023H26.863c-.084 0-.158.014-.237.023l2.102-6.844zm17.665 13.633H26.181v-4.77c0-.376.306-.682.682-.682h18.85c.375 0 .681.306.681.682v4.77z" fill="#C4935C"/></svg>