<svg width="50" height="50" fill="none" xmlns="http://www.w3.org/2000/svg"><path d="M47.5 30H40V17.5h7.5c.46 0 .833-.372.833-.832v-4.109L49.992.953A.833.833 0 0049.166 0H25.832a.833.833 0 00-.825.952l1.659 11.606v4.109c0 .46.373.833.833.833H35V30h-.834a2.5 2.5 0 100 5H35v1.666h-5.834l.778-11.666h.89c.46 0 .832-.373.832-.834v-3.333a.833.833 0 00-.833-.833h-5.896a5.845 5.845 0 00-2.951-4.27 5.833 5.833 0 10-11.1-3.18 8.32 8.32 0 00-9.174 7.45H.833a.833.833 0 00-.833.833v3.334c0 .46.373.833.833.833h.888l1.612 24.221c.03.44.394.78.834.779h45c.46 0 .833-.373.833-.834V32.501a2.5 2.5 0 00-2.5-2.5zM26.794 1.669H30v5h1.666v-5h1.667v1.666H35V1.668h5v2.5h1.666v-2.5h1.667v5H45v-5h3.206l-1.429 10H28.222l-1.428-10zm1.54 14.166v-2.5h18.332v2.5H28.334zm10 1.667V30h-1.668V17.5h1.667zM30 21.668v1.666H17.5v-1.666H30zM10.809 14.22c.229.028.456.069.681.12h.027c.978.23 1.891.678 2.673 1.308l1.048-1.295a8.374 8.374 0 00-2.695-1.445 4.156 4.156 0 117.584 2.75.833.833 0 00.416 1.25A4.167 4.167 0 0123.238 20h-6.571a.833.833 0 00-.834.833v7.5a.833.833 0 01-1.666 0v-1.666a2.5 2.5 0 00-5 0V32.5a.833.833 0 11-1.667 0V20.834a.833.833 0 00-.833-.833H3.389a6.65 6.65 0 017.42-5.78zm-9.142 9.114v-1.666h4.166v1.666H1.667zm21.666 15.833v9.167H4.947L3.39 25.001h2.442v7.5a2.5 2.5 0 105 0v-5.833a.833.833 0 011.667 0v1.666a2.5 2.5 0 005 0v-3.333h10.776L27.5 36.667h-1.667a2.5 2.5 0 00-2.5 2.5zm25 9.167h-2.5v-4.167h-1.666v4.167h-2.5v-4.167H40v4.167h-2.5v-4.167h-1.667v4.167h-2.5v-4.167h-1.666v4.167h-2.5v-4.167H27.5v4.167H25v-6.667h23.333v6.667zm0-8.333H25v-.834c0-.46.373-.833.833-.833h18.334a2.5 2.5 0 000-5h-10a.833.833 0 010-1.667H47.5c.46 0 .833.374.833.834V40zm-11.666-3.334v-1.666h1.666v1.666h-1.666zm3.333 0v-1.666h4.166a.833.833 0 010 1.666H40zM3.333 8.333V6.666H1.667v1.667H0V10h1.667v1.666h1.666V10H5V8.333H3.333z"/><path d="M47.5 23.333v-1.666h-1.667v1.666h-1.666V25h1.666v1.666H47.5V25h1.666v-1.667H47.5zM15.833 1.667V0h-1.667v1.667H12.5v1.666h1.666V5h1.667V3.333H17.5V1.667h-1.667zM31.666 8.334H30V10h1.666V8.334z"/></svg>