<svg width="50" height="50" fill="none" xmlns="http://www.w3.org/2000/svg"><path d="M47.822 10.758l-1.212-.38c-.303-.075-.606-.15-.985-.15-1.363 0-2.575.908-3.03 2.196l-.682 2.046v-1.591c0-.227-.151-.455-.303-.606L29.186.227a.819.819 0 00-.53-.227H4.338c-.455 0-.758.303-.758.758v2.348H.777c-.455 0-.758.303-.758.758v45.378c0 .455.303.758.758.758h36.818c.455 0 .758-.303.758-.758v-2.348h2.803c.454 0 .757-.303.757-.758V35.91l2.121-2.879.076-.227 5.682-18.106c.606-1.667-.303-3.41-1.97-3.94zM29.413 2.576l9.924 9.545h-9.924V2.576zm7.425 45.909H1.534V4.62H3.58v41.515c0 .455.303.758.757.758h32.5v1.59zm3.636-3.106H5.095V1.515h22.803V12.88c0 .454.303.757.758.757h11.818v5.682l-3.56 11.212v.228l.15 9.62c0 .304.228.607.531.683.303.075.682 0 .833-.303l2.046-2.728v7.349zm-1.97-7.349l-.151-6.288 3.788 1.213-3.637 5.075zm9.925-23.788l-5.455 17.349-4.394-1.44 5.455-17.272c.303-.833 1.212-1.364 2.045-1.06l1.212.378c.91.227 1.44 1.212 1.136 2.045z" fill="#C4935C"/><path d="M10.247 13.636h10.909c.454 0 .757-.303.757-.757V5.152c0-.455-.303-.758-.757-.758h-10.91c-.454 0-.757.303-.757.758v7.727c0 .379.379.757.758.757zm.757-7.727h9.394v6.212h-9.394V5.91zM8.731 20.758h23.03c.455 0 .758-.303.758-.758 0-.454-.303-.757-.757-.757H8.732c-.455 0-.758.303-.758.757 0 .455.303.758.757.758zM8.731 26.288h23.03c.455 0 .758-.303.758-.758 0-.454-.303-.757-.757-.757H8.732c-.455 0-.758.303-.758.758 0 .454.303.757.757.757zM8.731 31.818h23.03c.455 0 .758-.303.758-.757 0-.455-.303-.758-.757-.758H8.732c-.455 0-.758.303-.758.758 0 .454.303.757.757.757zM32.444 36.591c0-.455-.304-.758-.758-.758H8.73c-.454 0-.757.303-.757.758 0 .454.303.758.757.758h23.03c.38 0 .683-.38.683-.758zM34.944 41.364h-11.44c-.455 0-.757.303-.757.757 0 .455.303.758.757.758h11.364c.454 0 .757-.303.757-.758 0-.454-.303-.757-.681-.757z" fill="#C4935C"/></svg>