<svg width="50" height="50" fill="none" xmlns="http://www.w3.org/2000/svg"><path d="M23.438 4.688H25V7.03h-1.563V4.688zM7.813 4.688h1.562V7.03H7.812V4.688zM39.844 4.688h1.562V7.03h-1.562V4.688z" fill="#C4935C"/><path d="M20.313 32.031v.592a7.174 7.174 0 01-2.115 5.106 8.727 8.727 0 00-2.573 6.21v3.717a.781.781 0 00.781.782h15.625a.781.781 0 00.782-.782V43.94a8.725 8.725 0 00-2.573-6.211 7.176 7.176 0 01-2.115-5.106v-.592a.781.781 0 00-.781-.781h-.73l1.51-23.387a.765.765 0 00.001-.05v-5.47a.781.781 0 00-.781-.78h-6.25a.781.781 0 00-.782.78v5.47l.002.05 1.509 23.387h-.73a.781.781 0 00-.78.781zm8.822 6.803a7.174 7.174 0 012.115 5.106v2.935H17.187V43.94a7.174 7.174 0 012.115-5.106 8.722 8.722 0 002.571-6.022h4.691a8.723 8.723 0 002.571 6.022zm-7.26-35.709h4.688v4.662L25.049 31.25h-1.66L21.875 7.787V3.125z" fill="#C4935C"/><path d="M18.75 41.406h1.563v3.907H18.75v-3.907zM21.875 39.844h1.563v5.468h-1.563v-5.468zM25 39.844h1.563v5.468H25v-5.468zM28.125 41.406h1.563v3.907h-1.563v-3.907zM8.594 48.438a6.258 6.258 0 006.25-6.25V37.5a6.26 6.26 0 00-3.885-5.784L12.5 7.863a.765.765 0 00.001-.05v-5.47a.781.781 0 00-.781-.78h-6.25a.781.781 0 00-.782.78v5.47l.002.05 1.54 23.853A6.26 6.26 0 002.343 37.5v4.688a6.257 6.257 0 006.25 6.25zM6.25 7.788V3.124h4.688v4.662L9.42 31.307a6.09 6.09 0 00-1.653 0L6.25 7.786zM3.906 37.5a4.688 4.688 0 019.375 0v4.688a4.687 4.687 0 11-9.375 0V37.5z" fill="#C4935C"/><path d="M11.719 42.188v-5.47h-1.563v5.47a1.564 1.564 0 01-1.562 1.562H7.03v1.563h1.563a3.128 3.128 0 003.125-3.126zM40.625 48.438a7.04 7.04 0 007.031-7.032v-1.562a3.128 3.128 0 00-3.125-3.125 1.564 1.564 0 01-1.562-1.551L44.53 7.857l.001-.045V2.345a.781.781 0 00-.781-.781H37.5a.781.781 0 00-.781.78v5.47l.001.044 1.56 27.31a1.564 1.564 0 01-1.561 1.552 3.128 3.128 0 00-3.125 3.125v1.562a7.039 7.039 0 007.031 7.032zm0-1.563a5.477 5.477 0 01-5.33-4.251c.44.227.928.345 1.424.345h7.812c.496 0 .984-.118 1.424-.345a5.477 5.477 0 01-5.33 4.251zm-2.344-43.75h4.688V7.79l-1.52 26.585H39.8L38.281 7.79V3.125zM36.72 38.281a3.13 3.13 0 003.026-2.343h1.76a3.13 3.13 0 003.026 2.343 1.563 1.563 0 010 3.125H36.72a1.562 1.562 0 110-3.125z" fill="#C4935C"/></svg>