<svg width="50" height="50" fill="none" xmlns="http://www.w3.org/2000/svg"><path d="M15 26.667h2.5c.92 0 1.667-.747 1.667-1.667.404-.007.804.084 1.166.264 1.804.903 2.525 1.403 3.787 1.403h7.547a2.507 2.507 0 002.178-3.725 2.508 2.508 0 00.833-3.334 2.506 2.506 0 00.834-3.333 2.504 2.504 0 00-1.436-4.608H28.73A13.392 13.392 0 0030 6.083a2.75 2.75 0 00-5.35-.885 18.896 18.896 0 01-2.01 4.339 4.52 4.52 0 01-3.705 2.13 1.66 1.66 0 00-1.435-.834H15c-.92 0-1.667.746-1.667 1.667V25c0 .92.747 1.667 1.667 1.667zm9.027-16.205a20.58 20.58 0 002.206-4.74 1.083 1.083 0 012.1.361c0 2.334-.639 3.684-1.397 5.584h-1.103a.833.833 0 100 1.666h8.243a.833.833 0 01.666 1.428.794.794 0 01-.575.239h-2.5a.833.833 0 000 1.667h1.666a.833.833 0 010 1.666h-2.5a.833.833 0 100 1.667H32.5a.833.833 0 01.577 1.427.794.794 0 01-.577.24H30a.833.833 0 000 1.666h1.667a.833.833 0 010 1.667c-8.342 0-7.96.09-8.667-.264-1.803-.903-2.525-1.403-3.787-1.403-.083 0-.046.768-.046-10a6.203 6.203 0 004.86-2.871zM15 12.5h2.5V25H15V12.5zM45.394 36.446l-2.793-.423-1.257-2.661a1.48 1.48 0 00-2.688 0l-1.257 2.66-2.793.424a1.532 1.532 0 00-.834 2.583l2.043 2.084-.482 2.946a1.514 1.514 0 001.468 1.775c.5 0 .516-.078 3.199-1.552l2.49 1.368a1.5 1.5 0 002.177-1.592l-.485-2.948 2.043-2.083a1.533 1.533 0 00-.83-2.581zm-2.446 3.546a1.542 1.542 0 00-.416 1.329l.44 2.693c-3.477-1.911-2.5-1.896-5.946 0l.44-2.69a1.546 1.546 0 00-.416-1.334l-1.904-1.94 2.599-.394a1.495 1.495 0 001.126-.846L40 34.417l1.13 2.392a1.5 1.5 0 001.124.846l2.6.394-1.906 1.943zM30.394 36.446l-2.793-.423-1.257-2.661a1.48 1.48 0 00-2.688 0l-1.257 2.66-2.793.424a1.532 1.532 0 00-.834 2.583l2.043 2.084-.482 2.946a1.514 1.514 0 001.468 1.775c.5 0 .516-.078 3.199-1.552l2.49 1.368a1.5 1.5 0 002.177-1.592l-.485-2.948 2.043-2.083a1.532 1.532 0 00-.83-2.581zm-2.446 3.546a1.542 1.542 0 00-.416 1.329l.44 2.693c-3.477-1.911-2.5-1.896-5.946 0l.44-2.69a1.546 1.546 0 00-.416-1.334l-1.904-1.94 2.599-.394a1.495 1.495 0 001.126-.846L25 34.417l1.13 2.392a1.5 1.5 0 001.124.846l2.6.394-1.906 1.943zM15.394 36.446l-2.793-.423-1.257-2.661a1.48 1.48 0 00-2.688 0l-1.257 2.66-2.793.424a1.532 1.532 0 00-.833 2.583l2.042 2.084-.482 2.946a1.514 1.514 0 001.468 1.775c.5 0 .516-.078 3.199-1.552l2.49 1.368a1.5 1.5 0 002.177-1.592l-.485-2.948 2.043-2.083a1.533 1.533 0 00-.83-2.581zm-2.446 3.546a1.542 1.542 0 00-.416 1.329l.44 2.693c-3.477-1.911-2.5-1.896-5.946 0l.44-2.69a1.546 1.546 0 00-.416-1.334l-1.904-1.94 2.599-.394a1.495 1.495 0 001.126-.846L10 34.417l1.13 2.392a1.5 1.5 0 001.124.846l2.6.394-1.906 1.943z" fill="#C4935C"/><path d="M46.667 0H3.333A3.333 3.333 0 000 3.333v43.334A3.333 3.333 0 003.333 50h43.334A3.333 3.333 0 0050 46.667V3.333A3.333 3.333 0 0046.667 0zM3.333 1.667h43.334c.92 0 1.666.746 1.666 1.666v25H1.667v-25c0-.92.746-1.666 1.666-1.666zm43.334 46.666H3.333c-.92 0-1.666-.746-1.666-1.666V30h46.666v16.667c0 .92-.746 1.666-1.666 1.666z" fill="#C4935C"/></svg>