<svg width="28" height="28" viewBox="0 0 28 28" fill="none" xmlns="http://www.w3.org/2000/svg">
<path d="M27.6415 26.4993L21.0837 19.9429C22.8428 17.921 23.9079 15.2829 23.9079 12.3995C23.9079 6.05255 18.7442 0.895996 12.4018 0.895996C6.05344 0.895996 0.895752 6.05853 0.895752 12.3995C0.895752 18.7405 6.05942 23.9031 12.4018 23.9031C15.2858 23.9031 17.9245 22.8383 19.9469 21.0795L26.5047 27.6359C26.6602 27.7914 26.8697 27.8752 27.0731 27.8752C27.2765 27.8752 27.4859 27.7974 27.6415 27.6359C27.9527 27.3248 27.9527 26.8104 27.6415 26.4993ZM2.50528 12.3995C2.50528 6.94388 6.94496 2.51116 12.3958 2.51116C17.8527 2.51116 22.2864 6.94986 22.2864 12.3995C22.2864 17.8492 17.8527 22.2939 12.3958 22.2939C6.94496 22.2939 2.50528 17.8552 2.50528 12.3995Z" fill="#D6B38F"/>
</svg>
