<svg width="25" height="21" fill="none" xmlns="http://www.w3.org/2000/svg"><path d="M.378 9.631c2.557-1.409 5.412-2.585 8.08-3.766 4.589-1.936 9.196-3.838 13.85-5.61.905-.3 2.532-.596 2.692.746-.087 1.9-.447 3.788-.693 5.676-.626 4.152-1.349 8.29-2.054 12.43-.243 1.378-1.97 2.092-3.075 1.21-2.656-1.794-5.332-3.57-7.954-5.406-.858-.873-.062-2.126.705-2.749 2.187-2.155 4.507-3.987 6.58-6.254.56-1.35-1.093-.212-1.638.137-2.994 2.063-5.916 4.252-9.073 6.066-1.612.888-3.492.13-5.104-.366C1.25 11.146-.869 10.544.377 9.63z" fill="#D7B38F"/></svg>