<svg width="50" height="50" fill="none" xmlns="http://www.w3.org/2000/svg"><path d="M48.594 2.254L45.73.536a.837.837 0 00-.786-.039L39.04 3.293 32.282.534a.837.837 0 00-.504-.04l-3.334.778a.833.833 0 00-.267 1.51l5.015 3.282-3.715 1.76-2.897-1.45a1.665 1.665 0 00-2.34 1.978l1.04 3.385a1.66 1.66 0 001.593 1.179h2.595c.1 0 .199-.018.292-.053l5.396-2.024-.684 6.152a.833.833 0 001.201.837l3.334-1.666a.836.836 0 00.417-.482l2.391-7.173 6.667-3.333a1.668 1.668 0 00.113-2.92zm-17.874.197l1.18-.275L37 4.259l-2.04.967-4.24-2.775zm10.042 4.72a.836.836 0 00-.418.481l-2.39 7.173-1.655.827.664-5.978a.83.83 0 00-.829-.925.846.846 0 00-.292.053l-6.525 2.447h-2.444l-1.038-3.385 3.26 1.63c.23.114.498.118.73.008l15.43-7.309 2.482 1.49-6.975 3.488zM47.5 33.749h-1.003l-5.28-8.924a.919.919 0 00-.051-.077c-.47-.626-1.218-.999-2-.999H4.636c-1.15 0-2.147.78-2.435 1.937L.624 33.79a.823.823 0 00-.624.791v7.5a4.171 4.171 0 004.167 4.167h1.958a5.003 5.003 0 004.708 3.333 5.003 5.003 0 004.709-3.333h20.375a5.003 5.003 0 004.708 3.333 5.003 5.003 0 004.708-3.333h.5A4.171 4.171 0 0050 42.082V36.25c0-1.378-1.122-2.5-2.5-2.5zm-13.333-8.333h5a.84.84 0 01.643.303l4.75 8.03H34.167v-8.333zm-10.834 0H32.5v8.333h-9.167v-8.333zm-10.833 0h9.167v8.333H12.5v-8.333zm-8.674.631a.833.833 0 01.809-.631h6.198v8.333H2.33l1.496-7.702zm7.007 21.869A3.337 3.337 0 017.5 44.582a3.337 3.337 0 013.333-3.333 3.337 3.337 0 013.334 3.333 3.337 3.337 0 01-3.334 3.334zm29.792 0a3.337 3.337 0 01-3.333-3.334 3.337 3.337 0 013.333-3.333 3.337 3.337 0 013.333 3.333 3.337 3.337 0 01-3.333 3.334zm7.708-5.834c0 1.379-1.121 2.5-2.5 2.5h-.208c0-2.757-2.242-5-5-5s-5 2.243-5 5h-1.458v-7.5H32.5v7.5h-9.167v-7.5h-1.666v7.5h-5.834c0-2.757-2.242-5-5-5-2.757 0-5 2.243-5 5H4.167a2.503 2.503 0 01-2.5-2.5v-6.666H47.5c.46 0 .833.373.833.833v5.833zM16.335 10.925a4.21 4.21 0 00-1.508 1.405l1.402.902a2.52 2.52 0 01.907-.845l-.801-1.462zM20 10.416h-1.667v1.667H20v-1.667zM26.457 17.344l-.583 1.561c.39.146.741.39 1.016.708l1.26-1.093a4.2 4.2 0 00-1.692-1.176zM29.073 20.365l-1.63.352c.038.173.057.352.057.532v.954h1.667v-.954c0-.297-.032-.595-.095-.884zM24.524 17.082h-1.666v1.667h1.666v-1.666zM23.333 10.416h-1.666v1.667h1.666v-1.667zM21.19 17.082h-1.666v1.667h1.667v-1.666zM15.833 14.582c0-.06.002-.12.007-.178l-1.662-.12a4.124 4.124 0 00.366 2.03l1.514-.693a2.481 2.481 0 01-.225-1.039zM16.837 16.585l-1 1.333a4.15 4.15 0 001.906.789l.233-1.65a2.484 2.484 0 01-1.14-.472z" fill="#C4935C"/></svg>