<svg width="25" height="24" fill="none" xmlns="http://www.w3.org/2000/svg"><path d="M17.63 9.318c-.096-.772-.333-1.377-.754-1.914-.547-.69-1.245-1.104-2.28-1.35-.674-.163-.946-.144-1.19.078-.227.209-.272.627-.098.898.122.197.263.267.654.344.522.096.882.22 1.21.408.696.402 1.02 1.03 1.055 2.048.016.478.057.625.224.795.31.31.86.25 1.094-.121.085-.14.098-.201.107-.526.006-.2-.002-.5-.023-.66z"/><path d="M20.355 10.188c-.137-2.364-1.062-4.265-2.716-5.603-.932-.751-2.059-1.268-3.294-1.52-.452-.09-1.285-.162-1.428-.12a.877.877 0 00-.41.316c-.09.143-.11.463-.034.648.124.309.354.418.999.474.994.087 2.02.437 2.794.954a5.86 5.86 0 012.043 2.34c.392.813.634 1.984.627 3.034-.002.379.057.593.21.75.23.24.566.293.862.133.328-.172.405-.475.347-1.406zM23.37 19.289a2.593 2.593 0 00-.23-.463c-.486-.733-3.094-2.775-4.397-3.442-.743-.382-1.294-.51-1.703-.39-.439.123-.67.328-1.406 1.242-.297.367-.601.71-.682.764-.2.14-.593.251-.87.251-.644-.004-1.812-.42-2.71-.968-.697-.425-1.59-1.185-2.276-1.937-.81-.884-1.36-1.663-1.796-2.543-.562-1.13-.705-1.822-.47-2.327.058-.127.135-.262.17-.305.034-.038.397-.336.797-.66.786-.625.913-.768 1.06-1.196.185-.544.135-1.1-.15-1.66-.22-.424-.794-1.35-1.21-1.948C6.946 2.92 5.574 1.237 5.3 1.01 4.807.609 4.176.539 3.478.81c-.736.285-2.115 1.396-2.705 2.172-.531.702-.736 1.2-.766 1.856-.027.54.019.764.304 1.454 2.23 5.418 5.56 9.744 10.133 13.178 2.389 1.794 4.866 3.16 7.436 4.094 1.5.544 2.15.571 2.917.124.324-.193 1.125-1.015 1.572-1.613.74-.996 1.013-1.455 1.09-1.822.054-.25.012-.686-.088-.964z"/><path d="M23.13 10.73a10.762 10.762 0 00-.744-3.655c-.463-1.203-.932-1.988-1.818-3.05-.837-.994-1.488-1.562-2.52-2.195C16.61.949 14.859.366 12.897.12c-.67-.085-.82-.08-1.026.058-.398.26-.393.907.006 1.162.133.082.25.111.785.181.822.111 1.35.215 1.978.386 2.459.673 4.35 2.047 5.614 4.086 1.058 1.7 1.497 3.4 1.434 5.572-.021.734-.006.863.107 1.04.215.328.781.393 1.072.12.181-.166.215-.29.25-.919.018-.328.021-.811.014-1.076z"/></svg>