<svg width="32" height="27" fill="none" xmlns="http://www.w3.org/2000/svg"><g fill-rule="evenodd" clip-rule="evenodd" fill="#D6B38F"><path d="M22.723 8.096c-.159-.009-.319-.01-.48-.01-5.748 0-10.41 3.905-10.41 8.725 0 .789.129 1.553.363 2.28a13.495 13.495 0 01-4.384-.464l-.194-.056-4.132 2.104 1.104-3.458-.104-.067C1.758 15.404 0 12.653 0 9.558 0 4.279 5.116 0 11.428 0c5.717 0 10.454 3.51 11.295 8.096zM7.451 7.82c-.886 0-1.605-.697-1.605-1.554 0-.859.719-1.553 1.605-1.553.887 0 1.607.694 1.607 1.553 0 .857-.72 1.554-1.607 1.554zm7.954-3.107c.886 0 1.604.694 1.604 1.553 0 .857-.718 1.554-1.604 1.554-.887 0-1.604-.697-1.604-1.554 0-.859.717-1.553 1.604-1.553z"/><path d="M22.33 24.942c-5.333 0-9.657-3.615-9.657-8.075 0-4.458 4.324-8.073 9.657-8.073 5.33 0 9.653 3.615 9.653 8.073 0 2.616-1.487 4.94-3.79 6.415l-.089.056.933 2.923-3.489-1.78s-.11.034-.165.048a11.35 11.35 0 01-3.053.413zm-4.717-10.856c0-.723.608-1.312 1.356-1.312.75 0 1.357.589 1.357 1.312 0 .726-.608 1.315-1.357 1.315-.748 0-1.356-.589-1.356-1.315zm6.719 0c0-.723.606-1.312 1.355-1.312.75 0 1.356.589 1.356 1.312 0 .726-.606 1.315-1.356 1.315-.749 0-1.355-.589-1.355-1.315z"/></g></svg>