<svg width="29" height="29" fill="none" xmlns="http://www.w3.org/2000/svg"><path fill-rule="evenodd" clip-rule="evenodd" d="M14.391 28.552h-.006c-2.388 0-4.735-.6-6.82-1.736L0 28.8l2.025-7.395A14.245 14.245 0 01.12 14.27C.123 6.402 6.525 0 14.39 0c3.819.002 7.402 1.488 10.096 4.185a14.184 14.184 0 014.176 10.097c-.003 7.866-6.402 14.267-14.27 14.27zm-6.475-4.32l.433.257a11.845 11.845 0 006.037 1.653h.005c6.538 0 11.859-5.32 11.862-11.861a11.79 11.79 0 00-3.471-8.392 11.78 11.78 0 00-8.386-3.479c-6.543 0-11.864 5.321-11.867 11.861 0 2.241.626 4.424 1.814 6.313l.282.448-1.199 4.378 4.49-1.178zm13.176-6.878c.25.12.417.201.489.321.089.149.089.863-.208 1.696s-1.722 1.593-2.407 1.695c-.614.092-1.392.13-2.246-.141a20.476 20.476 0 01-2.033-.751c-3.343-1.444-5.602-4.684-6.029-5.296a4.37 4.37 0 00-.062-.088l-.003-.004c-.189-.252-1.453-1.94-1.453-3.685 0-1.643.806-2.504 1.178-2.9l.07-.075a1.31 1.31 0 01.95-.446c.238 0 .476.002.684.012.025.002.052.002.08.001.208 0 .467-.002.722.612l.394.955c.307.747.646 1.573.706 1.692.089.179.148.387.03.625-.019.036-.035.07-.05.101-.09.183-.156.317-.307.494-.06.07-.121.144-.183.22-.123.149-.245.298-.352.405-.179.177-.364.37-.156.727.207.357.923 1.525 1.983 2.47a9.208 9.208 0 002.632 1.664c.098.043.178.077.236.106.356.179.564.149.772-.089.208-.238.892-1.041 1.13-1.398.237-.357.475-.298.802-.179.327.12 2.08.982 2.436 1.16l.195.096z" fill="#D7B38F"/></svg>