<svg width="36" height="41" fill="none" xmlns="http://www.w3.org/2000/svg"><path d="M30.207 22.122c-.008-.776-.19-1.542-.473-2.261-.218-.557-.471-1.1-.719-1.644a311.702 311.702 0 00-6.2-12.74c-.304-.586-.602-1.176-.923-1.754-.316-.563-.683-1.106-1.159-1.547A4.525 4.525 0 0017.91.956h-.481a4.506 4.506 0 00-2.9 1.258c-.457.434-.812.963-1.12 1.51-.317.569-.61 1.15-.909 1.727a314.178 314.178 0 00-4.225 8.516 261.362 261.362 0 00-2.397 5.154c-.321.72-.613 1.464-.722 2.25a5.735 5.735 0 00.797 3.86 5.752 5.752 0 002.597 2.248c.836.36 1.744.521 2.653.47 1.214-.065 2.385-.501 3.412-1.138 1.145-.703 2.125-1.638 3.038-2.617.848.914 1.756 1.787 2.804 2.47 1.012.667 2.166 1.149 3.38 1.263a5.825 5.825 0 003.791-.922 5.777 5.777 0 002.173-2.67c.28-.704.419-1.456.407-2.213zm-12.549-.512c-.33-.39-.623-.811-.915-1.23a15.064 15.064 0 01-1.302-2.276c-.295-.663-.532-1.358-.625-2.08-.067-.573-.051-1.171.16-1.715.187-.51.55-.952 1.007-1.244 1.092-.705 2.649-.629 3.638.226.501.427.8 1.058.875 1.706.099.861-.097 1.727-.398 2.53-.568 1.492-1.467 2.829-2.44 4.083zm10.714 1.828a4.057 4.057 0 01-1.91 2.394 4.171 4.171 0 01-2.702.458c-1.168-.182-2.216-.802-3.124-1.533-.667-.536-1.268-1.15-1.843-1.78.908-1.15 1.765-2.353 2.419-3.667.57-1.152 1.004-2.399 1.045-3.693.023-.822-.131-1.658-.515-2.39-.502-.977-1.402-1.727-2.434-2.09a4.982 4.982 0 00-3.018-.095 4.48 4.48 0 00-2.354 1.592 4.48 4.48 0 00-.87 2.341c-.104 1.21.2 2.416.658 3.528.682 1.625 1.682 3.095 2.787 4.46a15.236 15.236 0 01-1.617 1.607c-.898.759-1.924 1.42-3.087 1.671-.94.211-1.954.106-2.816-.33a4.05 4.05 0 01-2.078-2.54c-.223-.8-.174-1.665.092-2.449.221-.649.521-1.267.802-1.89a311.712 311.712 0 016.13-12.604c.32-.618.633-1.24.97-1.848.276-.49.596-.97 1.049-1.315a2.71 2.71 0 011.716-.572 2.715 2.715 0 011.759.637c.482.4.807.948 1.1 1.493.66 1.241 1.294 2.497 1.93 3.75a305.44 305.44 0 015.22 10.86c.252.568.522 1.132.692 1.73a4.158 4.158 0 01-.001 2.275zM8.205 31.296c.545-.124 1.141.236 1.283.777.176.554-.174 1.199-.731 1.359-.544.191-1.19-.141-1.37-.684a1.112 1.112 0 01.818-1.452zm3.684 3.577c.329-.357.792-.581 1.268-.653.319-.03.64-.01.951.06-.004.503 0 1.005-.002 1.508-.489-.126-1.018-.152-1.498.025-.26.095-.496.249-.686.45-.042.036-.032.093-.035.142.002 1.404-.003 2.81.002 4.214-.005.054.008.115-.016.166-.542.012-1.086.002-1.628.004 0-2.142-.002-4.284.001-6.425.457.002.914-.002 1.371 0 .1-.005.208.047.245.145.036.117.024.242.027.364zm11.696.005c.434-.449 1.063-.67 1.68-.671.653-.017 1.322.176 1.826.6.335.263.577.626.69 1.037.143.5.13 1.027.128 1.542v3.404c-.546 0-1.093.004-1.64-.002v-3.402c0-.421.02-.876-.204-1.251-.156-.27-.465-.404-.763-.435-.567-.09-1.16.135-1.55.549-.042.041-.078.094-.073.157-.005.175.021.351.006.527-.021.238.012.477.005.716-.008.45-.008.901-.002 1.352-.031.596.023 1.195-.013 1.79-.545-.002-1.09 0-1.634 0 0-2.143-.004-4.285.002-6.428.421.004.844 0 1.265.002.108-.007.228.053.256.164.025.114.018.232.02.35zM7.605 40.79c0-2.142-.004-4.284 0-6.427.544.002 1.086.001 1.629 0 .004 2.143.001 4.285.001 6.427h-1.63zm-1.011-6.426c-.43 0-.86.001-1.291-.002-.114-.001-.26.005-.315.124-.05.123-.03.26-.035.389a2.183 2.183 0 00-1.38-.657c-.8-.072-1.628.15-2.27.635-.528.39-.92.956-1.124 1.578a4.136 4.136 0 00-.179.903v.44c.046.92.455 1.832 1.17 2.425a3.325 3.325 0 001.933.756h.366c.556-.037 1.105-.267 1.484-.682.004.13-.015.268.034.392.05.101.17.129.274.125.444-.001.889 0 1.333-.002v-6.424zm-1.691 4.424a1.74 1.74 0 01-1.37.617c-.555.004-1.13-.209-1.49-.645-.352-.415-.458-.994-.378-1.522.06-.428.278-.838.622-1.103a1.998 1.998 0 011.1-.402c.588-.051 1.207.208 1.56.682.02.699.001 1.399.01 2.098-.006.092.02.203-.054.275zm16.2-2.586a3.205 3.205 0 00-1.27-1.506 3.332 3.332 0 00-1.974-.483 2.209 2.209 0 00-1.449.663c-.002-1.2 0-2.4 0-3.6-.548 0-1.096-.003-1.643.001.003 3.17-.005 6.342.004 9.511.453.002.907.003 1.36.002.113.008.235-.054.266-.168.022-.116.014-.235.014-.353.38.423.94.653 1.502.687h.335c.91-.046 1.801-.472 2.372-1.187.8-.98.956-2.406.483-3.567zm-1.914 2.704c-.366.34-.874.504-1.37.499a1.734 1.734 0 01-1.36-.626.197.197 0 01-.05-.153V36.42c.314-.41.817-.665 1.332-.692.521-.015 1.069.138 1.452.506.365.339.543.847.531 1.338.011.491-.172.996-.535 1.334zm15.418-3.499c-.696-.886-1.886-1.334-2.996-1.168a2.163 2.163 0 00-1.226.637c-.004-1.2 0-2.4-.002-3.6l-1.638.001v9.512c.43.003.862-.001 1.293.003.113.002.254-.007.312-.123.05-.125.032-.264.035-.395.378.413.924.642 1.477.682h.37c.899-.049 1.779-.469 2.349-1.173.465-.561.716-1.28.758-2.005v-.43c-.052-.698-.288-1.393-.732-1.94zm-1.28 3.315c-.432.557-1.197.765-1.875.657-.413-.083-.813-.306-1.058-.654-.027-.27-.002-.543-.01-.814.005-.499-.013-.999.008-1.497.248-.342.646-.562 1.055-.653.757-.14 1.637.16 2.02.86.349.647.314 1.511-.14 2.1z" fill="#FF7977"/></svg>