<svg width="49" height="40" fill="none" xmlns="http://www.w3.org/2000/svg"><path fill-rule="evenodd" clip-rule="evenodd" d="M38.242 5.064C38.242 2.269 35.948 0 33.123 0H16.107c-2.824 0-5.118 2.269-5.118 5.064V21.31c0 2.794 2.294 5.063 5.118 5.063h17.016c2.825 0 5.119-2.27 5.119-5.063V5.064z" fill="#0C3B7C"/><path fill-rule="evenodd" clip-rule="evenodd" d="M10.99 16.384h13.611v9.989H10.99v-9.989z" fill="#0C3B7C"/><path d="M23.375 17.456l-2.195-.002v-2.597c0-.555.217-.843.697-.91h1.498c1.068 0 1.759.667 1.759 1.745 0 1.108-.674 1.763-1.76 1.764zm-2.195-7.004v-.684c0-.598.255-.883.816-.92h1.124c.963 0 1.54.57 1.54 1.526 0 .727-.395 1.576-1.505 1.576H21.18v-1.498zm4.997 2.591l-.396-.22.346-.294c.404-.342 1.08-1.114 1.08-2.444 0-2.038-1.598-3.352-4.07-3.352h-2.82v-.001h-.321a1.37 1.37 0 00-1.327 1.345V19.64h4.524c2.747 0 4.52-1.48 4.52-3.771 0-1.235-.573-2.29-1.536-2.826z" fill="#fff"/><path d="M28.892 18.043c0-.883.72-1.598 1.607-1.598.889 0 1.612.715 1.612 1.598 0 .882-.723 1.598-1.612 1.598a1.603 1.603 0 01-1.607-1.598z" fill="#00BAFC"/><g clip-path="url(#clip0)"><path d="M19.162 32.498c0-.197.078-.387.216-.526a.735.735 0 011.044 0c.138.14.216.329.216.526a.75.75 0 01-.226.51.735.735 0 01-1.25-.51z" fill="#273B7D"/><path d="M30.808 37.467c0-.414.33-.748.737-.748.196 0 .384.079.523.22a.75.75 0 010 1.056.737.737 0 01-.523.218.742.742 0 01-.737-.747" fill="#499FDD"/><path d="M7.048 37.144c-.636 0-1.078-.51-1.078-1.238s.442-1.237 1.078-1.237c.64 0 1.086.509 1.086 1.237 0 .74-.437 1.238-1.086 1.238zm0-3.563c-1.345 0-2.321.978-2.321 2.325 0 1.347.976 2.325 2.32 2.325 1.351 0 2.33-.978 2.33-2.325 0-1.347-.979-2.325-2.329-2.325zm10.684 2.441a1.108 1.108 0 00-.175-.25l-.042-.043.043-.042c.062-.066.125-.143.186-.234l1.188-1.78H17.49l-.892 1.393c-.05.075-.152.112-.304.112h-.204v-2.633c0-.527-.325-.599-.676-.599h-.601l.001 6.216h1.277v-1.864h.12c.145 0 .244.017.29.096l.704 1.342c.197.364.393.426.762.426h.978l-.729-1.216-.483-.923zm6.198-2.451c-.65 0-1.064.291-1.296.538l-.077.078-.028-.107c-.068-.264-.298-.409-.644-.409h-.572l.004 4.49h1.268v-2.07c0-.202.025-.377.079-.538.14-.485.534-.786 1.026-.786.396 0 .55.211.55.756v1.955c0 .465.214.682.675.682h.604l-.002-2.855c0-1.134-.549-1.734-1.587-1.734zm-4.015.102h-.6l.003 3.471v1.018h.641l.023.001.3-.001h.296v-.002h.003l.002-3.805c0-.459-.217-.682-.667-.682zm-7.887 3.47c-.635 0-1.078-.509-1.078-1.237 0-.728.443-1.237 1.079-1.237.637 0 1.085.509 1.085 1.237 0 .74-.437 1.238-1.085 1.238zm0-3.562c-1.346 0-2.322.978-2.322 2.325 0 1.347.976 2.325 2.323 2.325 1.348 0 2.33-.978 2.33-2.325 0-1.347-.982-2.325-2.33-2.325" fill="#273B7D"/><path d="M39.207 37.144c-.635 0-1.078-.51-1.078-1.238s.443-1.237 1.078-1.237c.639 0 1.087.509 1.087 1.237 0 .74-.437 1.238-1.087 1.238zm0-3.563c-1.345 0-2.322.978-2.322 2.325 0 1.347.977 2.325 2.322 2.325 1.35 0 2.33-.978 2.33-2.325 0-1.347-.981-2.325-2.33-2.325z" fill="#499FDD"/><path d="M28.19 36.946c-.693 0-.94-.61-.94-1.182 0-.252.063-1.074.874-1.074.402 0 .939.117.939 1.116 0 .942-.475 1.14-.873 1.14zm1.531-3.285c-.24 0-.426.097-.519.274l-.035.068-.058-.051c-.205-.179-.572-.391-1.168-.391-1.185 0-1.984.899-1.984 2.236 0 1.336.826 2.27 2.008 2.27.404 0 .723-.095.976-.288l.097-.075v.125c0 .6-.384.93-1.08.93a2.54 2.54 0 01-.853-.158c-.269-.082-.427-.014-.535.258l-.101.251-.143.368.088.047a3.442 3.442 0 001.551.381c1.08 0 2.34-.557 2.34-2.127l.006-4.118h-.59zM2.326 37.092H1.294v-1.246c0-.267.102-.405.328-.437h.704c.502 0 .827.32.828.837-.001.531-.318.846-.828.846zm-1.032-3.36v-.327c0-.287.12-.424.384-.441h.528c.453 0 .724.273.724.731 0 .349-.186.756-.707.756h-.93v-.718zm2.35 1.243l-.187-.105.163-.14c.19-.165.507-.535.507-1.173 0-.978-.75-1.609-1.913-1.609H.737a.645.645 0 00-.44.197.657.657 0 00-.184.449v5.546h2.128c1.291 0 2.125-.71 2.125-1.81 0-.591-.27-1.097-.722-1.355z" fill="#273B7D"/><path d="M47.202 33.586a1.735 1.735 0 00-1.361.666l-.092.117-.072-.132c-.235-.432-.64-.651-1.201-.651-.59 0-.985.332-1.169.53l-.12.13-.046-.172c-.067-.25-.286-.386-.618-.386h-.534l-.005 4.472h1.21v-1.974c0-.173.022-.344.065-.523.116-.477.433-.99.968-.939.328.032.49.29.49.785v2.651h1.22v-1.974c0-.216.02-.378.068-.54.097-.456.43-.922.944-.922.373 0 .511.212.511.785v1.997c0 .452.2.654.647.654h.57l.001-2.855c0-1.14-.498-1.72-1.476-1.72zm-11.018 3.021c-.004.005-.524.56-1.21.56-.626 0-1.257-.388-1.257-1.252 0-.746.49-1.267 1.19-1.267.228 0 .487.082.528.22l.005.024a.45.45 0 00.432.33l.663.001v-.585c0-.772-.973-1.052-1.627-1.052-1.4 0-2.416.983-2.416 2.339 0 1.354 1.004 2.336 2.39 2.336 1.202 0 1.856-.797 1.862-.805l.035-.044-.526-.879-.069.074z" fill="#499FDD"/></g><defs><clipPath id="clip0"><path fill="#fff" transform="translate(0 31.648)" d="M0 0h48.791v8.352H0z"/></clipPath></defs></svg>