<svg width="38" height="37" fill="none" xmlns="http://www.w3.org/2000/svg"><path d="M37.895 16.69c-.234-.698-.916-1.1-1.661-1.332 0 0 .894-.952 1.32-2.116.277-.74.107-1.523-.404-2.115a2.133 2.133 0 00-2.045-.698 7.601 7.601 0 00.511-2.772c0-.676-.34-1.29-.937-1.607-1.172-.656-2.151.148-2.151.148a7.184 7.184 0 00-.789-3.597c-.298-.592-.894-.91-1.555-.867a1.606 1.606 0 00-1.341.889c-.15-.36-.32-.72-.554-1.058C27.586.57 26.542.02 25.285-.001a1.42 1.42 0 00-1.235.635c-.277.423-.32.93-.107 1.375 0 0 1.065 2.856 1.62 3.258.851.613 6.219 4.548 6.219 11.381 0 5.818-5.24 12.841-12.397 12.841-7.391 0-13.185-6.304-13.185-12.862s5.325-10.789 6.22-11.36c.596-.38 1.64-3.237 1.64-3.237.213-.465.17-.973-.107-1.396a1.375 1.375 0 00-1.235-.635c-1.257.022-2.28.572-3.003 1.566a4.58 4.58 0 00-.554 1.058 1.635 1.635 0 00-1.342-.889c-.66-.042-1.236.296-1.555.867-.937 1.714-.788 3.533-.788 3.597 0 0-1.108-.783-2.151-.148-.576.36-.938.93-.938 1.607 0 .826.128 1.777.512 2.772a2.133 2.133 0 00-2.045.698 2.126 2.126 0 00-.405 2.115c.256.677 1.32 2.116 1.32 2.116-.596.042-1.427.613-1.66 1.333a1.955 1.955 0 00.468 2.01c.362.359.81.719 1.406 1.036H1.96a1.88 1.88 0 00-1 1.671c0 .698.383 1.333 1 1.671.299.17.618.297.959.402 0 0-.916 1.1-.64 2.073a2.034 2.034 0 001.364 1.418c.383.127.81.233 1.278.296 0 0-1.065.973-.724 2.264.17.655.81 1.079 1.47 1.163.362.043 1.043.127 1.725.064 0 0-.511 1.163.34 2.157.405.466 1.279.762 1.811.72.682-.043 1.278-.19 1.81-.339l-.212 1.122a2.132 2.132 0 00.532 1.861c.426.465 1.172.762 1.832.698 2.28-.211 3.642-.952 4.41-1.523a4.943 4.943 0 001.086-1.121c.852 1.184 2.45 2.348 5.495 2.644.959.085 1.406-.233 1.832-.698.469-.508.66-1.185.532-1.861l-.213-1.122c.533.148 1.513.339 2.045.339.618 0 1.214-.254 1.598-.74.788-1.037.34-2.159.34-2.159.192.022 1.108.064 1.726-.063.66-.127 1.257-.529 1.47-1.163.383-1.185-.724-2.264-.724-2.264.49-.064.916-.17 1.278-.296.66-.212 1.192-.74 1.363-1.418.277-1.248-.64-2.073-.64-2.073.342-.106.661-.233.96-.402a1.88 1.88 0 001-1.671c0-.698-.383-1.333-1-1.671h-.022a5.882 5.882 0 001.406-1.037c.511-.507.681-1.27.447-1.988zm-2.577-5.161c.383-.085.745.042 1 .338a.98.98 0 01.193 1.016c-.576 1.608-1.79 2.644-3.621 3.11-.022-.804-.15-1.693-.277-2.391a7.367 7.367 0 001.853-1.883l.852-.19zm-9.01-7.108l-1.342-2.877c-.064-.148-.021-.254.021-.296a.307.307 0 01.277-.149c.895.022 1.598.402 2.109 1.1.81 1.122.852 2.666.767 3.66a22.72 22.72 0 00-1.832-1.438zm2.854 2.39a9.58 9.58 0 00.107-2.115l.532-1.502a.504.504 0 01.447-.339c.085 0 .341 0 .49.275.469.91.703 1.862.682 2.856-.022 1.439-.341 2.412-.64 2.983a13.363 13.363 0 00-1.618-2.158zm2.236 3.237c.32-.402.789-1.164 1.002-2.496l.958-.55a.717.717 0 01.767 0 .746.746 0 01.383.655c0 1.397-.404 3.28-2.194 4.76a15.874 15.874 0 00-.916-2.369zM10.631 2.221c.51-.72 1.214-1.08 2.108-1.1.15 0 .235.105.277.148.043.063.085.169.021.296l-1.341 2.877c-.575.38-1.3.973-1.832 1.46-.085-1.016-.043-2.56.767-3.681zm-3.387.91c.149-.276.426-.276.49-.276.085 0 .34.043.447.339l.533 1.502c-.064.91.042 1.713.106 2.115-.745.783-1.3 1.587-1.64 2.158-.277-.529-.618-1.438-.64-2.962 0-1.015.235-1.988.704-2.877zM3.878 7.022a.82.82 0 01.767 0l.959.55c.234 1.333.681 2.094 1 2.496-.425.846-.723 1.735-.915 2.37-1.79-1.46-2.173-3.364-2.194-4.76 0-.402.256-.593.383-.656zm-2.194 4.823a1.017 1.017 0 011.002-.338l.852.169A7.046 7.046 0 005.39 13.56a14.14 14.14 0 00-.277 2.39c-1.81-.465-3.025-1.502-3.621-3.11-.128-.317-.064-.698.191-.994zm-.532 5.204a.823.823 0 01.681-.57l1.13-.17c.596.338 1.299.613 2.13.804.042.867.17 1.671.298 2.221-1.662.063-3.025-.402-4.047-1.417a.858.858 0 01-.192-.868zm.916 4.337c0-.296.149-.55.405-.677l.873-.465a7.962 7.962 0 002.322.19c.213.698.468 1.375.788 2.03-1.555.318-2.897.191-3.983-.38a.79.79 0 01-.405-.698zm1.278 3.871a.916.916 0 01.213-.867l.618-.677c.234.021 1.597.106 2.811-.233.448.762.959 1.481 1.534 2.158-1.875.804-3.493.593-4.558.254a.889.889 0 01-.618-.635zm2.47 4.316c-.255-.042-.49-.212-.574-.444a.726.726 0 01.127-.72l.98-1.1a7.89 7.89 0 002.982-.803c.554.55 1.15 1.057 1.79 1.502-1.79 1.628-3.835 1.755-5.304 1.565zm3.6 2.94a.95.95 0 01-.852-.338.96.96 0 01-.191-.889l.213-.74a7.185 7.185 0 003.472-1.925c.873.529 1.853.93 2.47 1.163-1.065 1.904-3.322 2.54-5.112 2.73zm7.818 2.053c-1.172.888-2.727 1.205-3.834 1.311a1.007 1.007 0 01-.895-.338 1.035 1.035 0 01-.256-.91l.341-1.756c1.64-.698 2.556-1.756 3.068-2.729 1.065.296 2.15.444 3.258.487.043 1.713-.51 3.046-1.682 3.935zm8.541.042c.064.338-.021.677-.255.91-.235.253-.554.38-.895.338-1.747-.17-4.005-.762-4.984-2.666.298-.782.447-1.67.404-2.665a17.548 17.548 0 002.343-.423c.512.973 1.428 2.03 3.068 2.75l.32 1.756zm6.987-5.5a.64.64 0 01-.575.444c-1.534.211-2.918-.043-4.133-.72-.277-.147-.617-.063-.766.212a.552.552 0 00.212.762 7.165 7.165 0 001.875.719l.213.74a.96.96 0 01-.192.889.93.93 0 01-.852.338c-1.768-.19-4.026-.825-5.133-2.729.724-.253 1.938-.74 2.875-1.417.852-.55 1.64-1.164 2.343-1.883a8.192 8.192 0 002.982.804l.98 1.1c.213.233.256.508.17.74zm1.661-4.718c.213.233.298.55.213.867a.916.916 0 01-.617.656c-1.066.339-2.684.55-4.559-.254a15.273 15.273 0 001.534-2.157c.745.169 1.853.338 2.812.232l.617.656zm1.087-3.68a.757.757 0 01.404.676c0 .296-.149.55-.404.677-1.087.571-2.429.698-3.984.38.32-.655.575-1.332.788-2.03.192.021 1.3.063 2.322-.19l.873.486zm1.128-2.793c-1.022 1.015-2.385 1.502-4.047 1.417.107-.55.235-1.354.299-2.221.852-.19 1.554-.466 2.13-.804l1.128.17c.32.041.576.253.682.57a.815.815 0 01-.192.868z" fill="#CDA990"/></svg>