<svg width="103" height="101" viewBox="0 0 103 101" fill="none" xmlns="http://www.w3.org/2000/svg">
<g clip-path="url(#clip0)">
<path d="M102.712 45.5626C102.076 43.6569 100.229 42.5597 98.2082 41.9245C98.2082 41.9245 100.633 39.3259 101.788 36.1498C102.538 34.1286 102.076 31.992 100.691 30.375C99.3051 28.7581 97.2267 28.0651 95.1482 28.4694C96.1874 25.813 96.5338 23.1566 96.5338 20.9045C96.5338 19.0566 95.6101 17.3819 93.9935 16.5157C90.818 14.7255 88.1622 16.9199 88.1622 16.9199C88.3354 13.5706 87.5271 9.99024 86.026 7.10288C85.2177 5.48595 83.6011 4.61974 81.8113 4.73524C80.1947 4.85073 78.8668 5.77469 78.174 7.16062C77.7698 6.17892 77.3079 5.19722 76.6729 4.27326C74.7676 1.55914 71.9385 0.057707 68.5322 -4.02732e-05C67.1465 -0.0577876 65.9341 0.63518 65.1835 1.73238C64.4329 2.88732 64.3175 4.27326 64.8948 5.48595C64.8948 5.48595 67.7816 13.2818 69.2827 14.379C71.5921 16.0537 86.1415 26.7947 86.1415 45.4471C86.1415 61.3276 71.9385 80.4997 52.5394 80.4997C32.5052 80.4997 16.8012 63.291 16.8012 45.3893C16.8012 27.4877 31.2351 15.9382 33.66 14.379C35.2766 13.3396 38.1056 5.5437 38.1056 5.5437C38.6829 4.27326 38.5675 2.88732 37.8169 1.73238C37.0663 0.577433 35.8539 -0.0577876 34.4683 -4.02732e-05C31.0619 0.057707 28.2906 1.55914 26.3276 4.27326C25.6925 5.19722 25.1729 6.17892 24.8264 7.16062C24.1336 5.77469 22.748 4.85073 21.1891 4.73524C19.3993 4.61974 17.8405 5.5437 16.9744 7.10288C14.4341 11.7804 14.8382 16.7467 14.8382 16.9199C14.8382 16.9199 11.836 14.7833 9.00693 16.5157C7.44808 17.4974 6.46657 19.0566 6.46657 20.9045C6.46657 23.1566 6.81299 25.7552 7.85222 28.4694C5.77375 28.0651 3.69527 28.7581 2.30962 30.375C0.923973 31.992 0.519825 34.1286 1.21265 36.1498C1.90548 37.9977 4.79225 41.9245 4.79225 41.9245C3.17565 42.04 0.923973 43.5992 0.288883 45.5626C-0.346206 47.4682 0.115677 49.6049 1.55906 51.0486C2.54057 52.0303 3.75301 53.012 5.3696 53.8782H5.31187C3.63754 54.7444 2.5983 56.5345 2.5983 58.4402C2.5983 60.3459 3.63754 62.0783 5.31187 63.0022C6.12016 63.4642 6.98619 63.8107 7.90996 64.0994C7.90996 64.0994 5.42734 67.1023 6.1779 69.7587C6.69752 71.6066 8.02543 73.0503 9.87296 73.6277C10.9122 73.9742 12.0669 74.263 13.3371 74.4362C13.3371 74.4362 10.4503 77.0926 11.3741 80.6152C11.836 82.4053 13.568 83.5603 15.3578 83.7913C16.3393 83.9068 18.1869 84.1377 20.0344 83.9645C20.0344 83.9645 18.6487 87.1406 20.9582 89.8547C22.0551 91.1252 24.4223 91.9336 25.8657 91.8181C27.7132 91.7027 29.3298 91.2984 30.7732 90.8942L30.1958 93.9548C29.8494 95.8027 30.369 97.6506 31.6392 99.0366C32.7939 100.307 34.8147 101.115 36.6045 100.942C42.7822 100.365 46.4772 98.3436 48.5557 96.7844C49.7104 95.9182 50.6919 94.8788 51.5002 93.7238C53.8096 96.9577 58.1398 100.134 66.3959 100.942C68.994 101.173 70.2065 100.307 71.3612 99.0366C72.6314 97.6506 73.151 95.8027 72.8046 93.9548L72.2272 90.8942C73.6706 91.2984 76.3264 91.8181 77.7698 91.8181C79.4441 91.8181 81.0607 91.1252 82.1 89.797C84.2362 86.9674 83.0237 83.9068 83.0237 83.9068C83.5434 83.9645 86.026 84.08 87.7003 83.7335C89.4901 83.387 91.1067 82.2898 91.6841 80.5574C92.7233 77.3236 89.721 74.3785 89.721 74.3785C91.049 74.2052 92.2037 73.9165 93.1852 73.57C94.975 72.9925 96.4184 71.5488 96.8802 69.7009C97.6308 66.2938 95.1482 64.0417 95.1482 64.0417C96.072 63.753 96.938 63.4065 97.7463 62.9445C99.4206 62.0783 100.46 60.2881 100.46 58.3825C100.46 56.4768 99.4206 54.7444 97.7463 53.8204H97.6885C99.3051 52.9542 100.518 51.9725 101.499 50.9908C102.885 49.6049 103.347 47.526 102.712 45.5626ZM95.7255 31.4722C96.7648 31.2412 97.7463 31.5877 98.4391 32.3962C99.1319 33.1469 99.3051 34.1864 98.9587 35.1681C97.3999 39.5569 94.1089 42.3865 89.1437 43.6569C89.086 41.4625 88.7396 39.0371 88.3931 37.1315C90.5871 35.5723 92.2037 33.7821 93.4161 31.992L95.7255 31.4722ZM71.3035 12.0691L67.6661 4.21551C67.4929 3.81128 67.6084 3.52254 67.7239 3.40705C67.7816 3.29156 68.0125 3.00282 68.4744 3.00282C70.8993 3.06057 72.8046 4.10002 74.1902 6.00568C76.3842 9.06628 76.4996 13.2818 76.2687 15.996C74.8253 14.7255 72.8046 13.1086 71.3035 12.0691ZM79.04 18.5946C79.2132 17.4396 79.5019 15.303 79.3287 12.8199L80.7721 8.7198C81.0607 7.91134 81.8113 7.79584 81.9845 7.79584C82.2154 7.79584 82.9083 7.79584 83.3124 8.54656C84.5826 11.0297 85.2177 13.6283 85.16 16.3424C85.1022 20.2693 84.2362 22.9256 83.4279 24.4848C82.5041 22.9256 81.003 20.7312 79.04 18.5946ZM85.1022 27.4299C85.9682 26.3327 87.2384 24.2538 87.8158 20.6157L90.4139 19.1143C91.049 18.7101 91.8573 18.7101 92.4923 19.1143C92.781 19.2876 93.5316 19.8073 93.5316 20.9045C93.5316 24.7158 92.4346 29.8553 87.5848 33.8976C87.0652 32.1652 86.2569 29.7976 85.1022 27.4299ZM28.8102 6.06343C30.1958 4.10002 32.1011 3.11831 34.526 3.06057C34.9301 3.06057 35.1611 3.3493 35.2766 3.4648C35.392 3.63804 35.5075 3.92678 35.3343 4.27326L31.697 12.1269C30.1381 13.1663 28.1751 14.7833 26.7317 16.1115C26.5008 13.3396 26.6162 9.12403 28.8102 6.06343ZM19.6303 8.54656C20.0344 7.79584 20.785 7.79584 20.9582 7.79584C21.1891 7.79584 21.8819 7.91134 22.1706 8.7198L23.614 12.8199C23.4408 15.303 23.7295 17.4974 23.9027 18.5946C21.8819 20.7312 20.3808 22.9256 19.457 24.4848C18.7065 23.0411 17.7827 20.558 17.725 16.4002C17.725 13.6283 18.3601 10.9719 19.6303 8.54656ZM10.5081 19.1721C11.1431 18.8256 11.9514 18.8256 12.5865 19.1721L15.1846 20.6735C15.8197 24.3116 17.0322 26.3905 17.8982 27.4877C16.7435 29.7976 15.9352 32.2229 15.4156 33.9554C10.5658 29.9708 9.52655 24.7735 9.46882 20.9622C9.46882 19.865 10.1616 19.3453 10.5081 19.1721ZM4.56131 32.3384C5.25413 31.53 6.29337 31.1835 7.27487 31.4145L9.58429 31.8765C10.7967 33.7244 12.4133 35.4568 14.6073 37.016C14.2031 38.9216 13.9144 41.4048 13.8567 43.5414C8.9492 42.271 5.65828 39.4414 4.04169 35.0526C3.69527 34.1864 3.86848 33.1469 4.56131 32.3384ZM3.11792 46.5443C3.4066 45.6781 4.09942 45.1006 4.96545 44.9851L8.02543 44.5231C9.64202 45.4471 11.5473 46.1978 13.799 46.7175C13.9144 49.0852 14.2609 51.2796 14.6073 52.781C10.1039 52.9542 6.40884 51.6838 3.63754 48.9119C3.06018 48.2767 2.82924 47.4105 3.11792 46.5443ZM5.60054 58.3825C5.60054 57.574 6.00469 56.881 6.69752 56.5346L9.06467 55.2641C10.4503 55.6106 12.8175 55.9571 15.3578 55.7838C15.9352 57.6895 16.628 59.5374 17.494 61.3276C13.2794 62.1938 9.64202 61.8473 6.69752 60.2881C6.00469 59.8839 5.60054 59.1909 5.60054 58.3825ZM9.06467 68.9502C8.83373 68.084 9.06467 67.2178 9.64202 66.5826L11.3163 64.7347C11.9514 64.7924 15.6465 65.0234 18.9374 64.0994C20.1499 66.1784 21.5355 68.1418 23.0944 69.9897C18.0137 72.1841 13.6258 71.6066 10.739 70.6826C9.9307 70.4517 9.29561 69.8164 9.06467 68.9502ZM15.762 80.7307C15.0692 80.6152 14.4341 80.1532 14.2031 79.518C13.9722 78.825 14.0877 78.0743 14.5495 77.5546L17.2054 74.5517C19.6303 74.3785 22.4016 73.801 25.2883 72.3573C26.7894 73.8587 28.406 75.2447 30.1381 76.4574C25.2883 80.9039 19.7457 81.2504 15.762 80.7307ZM25.5193 88.7575C24.6532 88.873 23.7872 88.5266 23.2098 87.8336C22.6325 87.1406 22.4593 86.2744 22.6902 85.4082L23.2676 83.387C26.3853 82.6363 29.6762 81.1349 32.6785 78.132C35.0456 79.5757 37.7014 80.6729 39.3758 81.3081C36.489 86.5054 30.369 88.2378 25.5193 88.7575ZM46.7082 94.359C43.5327 96.7844 39.318 97.6506 36.3158 97.9394C35.392 98.0549 34.4683 97.7084 33.8909 97.0154C33.2558 96.3224 33.0249 95.3985 33.1981 94.5323L34.1218 89.7392C38.5675 87.8336 41.0501 84.9462 42.4357 82.2898C45.3225 83.0983 48.267 83.5025 51.2693 83.618C51.3847 88.2956 49.8836 91.9336 46.7082 94.359ZM69.8601 94.4745C70.0333 95.3985 69.8023 96.3224 69.1672 96.9576C68.5322 97.6506 67.6661 97.9971 66.7424 97.8816C62.0081 97.4196 55.8881 95.8027 53.2323 90.6054C54.0406 88.4688 54.4447 86.0434 54.3292 83.3293C56.4655 83.0983 58.6017 82.6941 60.6801 82.1743C62.0658 84.8307 64.5484 87.7181 68.994 89.6815L69.8601 94.4745ZM88.7973 79.4602C88.5663 80.1532 87.989 80.6152 87.2384 80.6729C83.0815 81.2504 79.3287 80.5574 76.0378 78.7095C75.2872 78.3053 74.3634 78.5363 73.9593 79.287C73.5551 80.0377 73.7861 80.9617 74.5366 81.3659C76.0955 82.2321 77.8276 82.9251 79.6173 83.3293L80.1947 85.3504C80.4256 86.2167 80.2524 87.0829 79.6751 87.7758C79.0977 88.4688 78.2894 88.8153 77.3657 88.6998C72.5736 88.1801 66.4537 86.4476 63.4514 81.2504C65.4144 80.5574 68.7054 79.2292 71.2457 77.3813C73.5551 75.8799 75.6913 74.2052 77.5966 72.2418C80.4834 73.6277 83.1969 74.263 85.6796 74.4362L88.3354 77.4391C88.9128 78.0743 89.0282 78.825 88.7973 79.4602ZM93.3007 66.5826C93.878 67.2178 94.1089 68.084 93.878 68.9502C93.6471 69.8164 93.0697 70.4517 92.2037 70.7404C89.3169 71.6643 84.929 72.2418 79.8483 70.0474C81.4072 68.1995 82.7928 66.2361 84.0052 64.1572C86.026 64.6192 89.0282 65.0811 91.6263 64.7924L93.3007 66.5826ZM96.2452 56.5346C96.938 56.881 97.3421 57.6318 97.3421 58.3825C97.3421 59.1909 96.938 59.8839 96.2452 60.2304C93.3006 61.7896 89.6633 62.136 85.4486 61.2698C86.3147 59.4797 87.0075 57.6318 87.5848 55.7261C88.1045 55.7838 91.1067 55.8993 93.878 55.2064L96.2452 56.5346ZM99.3051 48.9119C96.5338 51.6838 92.8388 53.012 88.3354 52.781C88.6241 51.2796 88.9705 49.0852 89.1437 46.7175C91.4531 46.1978 93.3584 45.4471 94.9172 44.5231L97.9772 44.9851C98.8432 45.1006 99.5361 45.6781 99.8247 46.5443C100.113 47.4105 99.9402 48.2767 99.3051 48.9119Z" fill="#FFDFC0"/>
</g>
<defs>
<clipPath id="clip0">
<rect width="103" height="101" fill="white"/>
</clipPath>
</defs>
</svg>
