<svg xmlns="http://www.w3.org/2000/svg" xmlns:xlink="http://www.w3.org/1999/xlink" width="0" height="0" style="position:absolute">

		<symbol id="icon-24-hours">
			<path d="M49.167 45h-2.5V29.167a.833.833 0 00-1.516-.478L33.484 45.356a.833.833 0 00.683 1.31H45v2.5a.833.833 0 001.667 0v-2.5h2.5a.833.833 0 000-1.666zM45 45h-9.233L45 31.81V45z"/><path d="M34.167 48.334H24.3l9.172-10.801c.021-.025.04-.051.059-.078a5.797 5.797 0 00-1.309-7.87A6.667 6.667 0 0021.667 35a.833.833 0 001.666 0 5 5 0 017.917-4.061 4.114 4.114 0 01.917 5.554L21.865 48.628A.833.833 0 0022.5 50h11.667a.833.833 0 000-1.666z"/><path d="M22.518 44.182a.833.833 0 00-.801-.864c-10.872-.403-19.598-9.113-20.021-19.985H5a.833.833 0 000-1.666H1.696c.417-10.852 9.119-19.554 19.97-19.97v2.47a.833.833 0 001.667 0v-2.47c10.704.414 19.343 8.89 19.96 19.583l-3.25-3.25a.833.833 0 00-1.178 1.178l4.652 4.652a.82.82 0 00.328.24c.033.009.066.017.1.023a.82.82 0 00.176.043h.047a.802.802 0 00.187-.037.8.8 0 00.102-.019.821.821 0 00.3-.188l4.715-4.714a.833.833 0 00-1.178-1.178l-3.33 3.328C44.367 9.414 34.518.03 22.558.012 22.54.01 22.521 0 22.5 0c-.02 0-.038.01-.06.012C10.06.029.03 10.06.013 22.44c0 .02-.012.038-.012.059 0 .02.01.038.012.06.02 12.074 9.577 21.975 21.643 22.424h.03a.833.833 0 00.833-.802z" /><path d="M33.696 11.304a.833.833 0 00-1.178 0l-8.956 8.954a2.61 2.61 0 00-2.125 0l-4.24-4.24a.833.833 0 00-1.179 1.178l4.232 4.232a2.496 2.496 0 004.017 2.84 2.473 2.473 0 00.482-2.839l8.947-8.947a.833.833 0 000-1.178zM23.089 23.089a.852.852 0 01-1.178 0 .833.833 0 111.178 0z"/>
		</symbol>

		<symbol id="icon-apartament1">
			<path d="M32.788 20.687a.652.652 0 00.023-.432l-2.706-8.76V3.41C30.105 1.53 28.568 0 26.682 0H6.152a3.418 3.418 0 00-3.418 3.41v8.084L.028 20.255a.651.651 0 00.023.432 2.02 2.02 0 00-.051.45V29.318c0 .376.35.682.727.682s.726-.306.726-.682V27.27h30.021v2.047a.685.685 0 001.37 0V21.137c0-.158-.024-.306-.056-.45zM4.103 3.41c0-1.128.922-2.047 2.054-2.047h20.525c1.132 0 2.054.92 2.054 2.047v7.498h-1.859l-.638-2.542a2.047 2.047 0 00-1.993-1.55H19.84a2.054 2.054 0 00-2.054 2.046v2.046h-2.738V8.868a2.053 2.053 0 00-2.054-2.047H8.588c-.94 0-1.76.64-1.993 1.55l-.638 2.538H4.103V3.411zm21.368 8.598a.683.683 0 01-.54.26h-5.09a.684.684 0 01-.685-.682V8.863c0-.376.307-.682.684-.682h4.406c.317 0 .587.213.666.515l.685 2.729a.678.678 0 01-.126.584zM13.683 8.863v2.729a.68.68 0 01-.684.677h-5.09a.678.678 0 01-.666-.845l.684-2.728a.683.683 0 01.666-.515h4.406c.377 0 .684.306.684.682zm-9.762 3.41H5.98c.075.205.168.4.307.58.396.502.983.785 1.621.785h5.09c.89 0 1.645-.57 1.929-1.364h2.99a2.047 2.047 0 001.928 1.364h5.09a2.06 2.06 0 001.621-.784c.14-.176.233-.376.307-.58h2.064l2.114 6.844c-.08-.009-.158-.023-.238-.023H2.05c-.084 0-.158.014-.237.023l2.11-6.844zm27.553 13.634H1.364v-4.77c0-.376.308-.682.685-.682h28.74c.378 0 .685.306.685.682v4.77z" />
		</symbol>

		<symbol id="icon-apartament2">
			<path d="M22.882 20.687a.654.654 0 00.023-.432l-2.696-8.76V3.41c0-1.88-1.532-3.411-3.41-3.411H6.128a3.412 3.412 0 00-3.405 3.41v8.084L.028 20.255a.653.653 0 00.023.432 2.026 2.026 0 00-.051.45V29.318c0 .376.348.682.724.682s.724-.306.724-.682V27.27h20.125v2.047a.683.683 0 001.364 0V21.137a2.344 2.344 0 00-.055-.45zM4.088 3.41a2.05 2.05 0 012.047-2.047h10.668a2.05 2.05 0 012.046 2.047v7.498h-2.96l-.636-2.542a2.04 2.04 0 00-1.986-1.55H9.675c-.937 0-1.754.64-1.986 1.55l-.64 2.542h-2.96V3.411zm10.288 8.598a.695.695 0 01-.548.265H9.095a.702.702 0 01-.547-.265.685.685 0 01-.126-.594l.692-2.76a.695.695 0 01.673-.525h3.355a.69.69 0 01.672.524l.692 2.761a.69.69 0 01-.13.594zm-10.469.265h3.16c.075.204.167.399.307.58.394.501.979.784 1.614.784h4.956a2.05 2.05 0 001.615-.784c.14-.176.232-.376.306-.58h3.156l2.107 6.844c-.08-.009-.158-.023-.237-.023H2.041c-.083 0-.157.014-.236.023l2.102-6.844zm17.661 13.633H1.36v-4.77c0-.376.306-.682.682-.682H20.89c.376 0 .682.306.682.682v4.77h-.005zM47.703 20.687a.654.654 0 00.023-.432l-2.696-8.76V3.41C45.03 1.53 43.5 0 41.62 0H30.955a3.416 3.416 0 00-3.41 3.41v8.084l-2.697 8.761a.654.654 0 00.023.432 2.025 2.025 0 00-.05.45V29.318c0 .376.347.682.723.682s.724-.306.724-.682V27.27h20.125v2.047a.683.683 0 001.365 0V21.137a2.03 2.03 0 00-.056-.45zM28.909 3.41a2.05 2.05 0 012.047-2.047h10.663a2.05 2.05 0 012.047 2.047v7.498h-2.96l-.637-2.542a2.04 2.04 0 00-1.986-1.55h-3.591c-.938 0-1.754.64-1.986 1.55l-.636 2.538h-2.96V3.41zm10.293 8.598a.695.695 0 01-.548.265h-4.738a.702.702 0 01-.547-.265.684.684 0 01-.125-.594l.691-2.76a.695.695 0 01.673-.525H37.963a.69.69 0 01.673.524l.691 2.761a.703.703 0 01-.125.594zm-10.473.265h3.16c.074.204.167.399.306.58.394.501.979.784 1.615.784h4.956a2.05 2.05 0 001.614-.784c.14-.176.232-.376.307-.58h3.16l2.106 6.844c-.078-.009-.157-.023-.236-.023H26.863c-.084 0-.158.014-.237.023l2.102-6.844zm17.665 13.633H26.181v-4.77c0-.376.306-.682.682-.682h18.85c.375 0 .681.306.681.682v4.77z" />
		</symbol>

		<symbol id="icon-apartament3">
			<path d="M37.986 14.23l-2.188-3.506h-3.413V3.353c0-1.849-1.5-3.353-3.345-3.353H8.973a3.353 3.353 0 00-3.345 3.353v7.376H2.192L.005 14.23H0v9.446C0 24.407.592 25 1.32 25h1.645c.728 0 1.32-.593 1.32-1.323v-1.395h29.43v1.395c0 .73.592 1.323 1.32 1.323h1.645c.728 0 1.32-.593 1.32-1.323v-9.446h-.014zm-1.577 0h-2.125l-1.401-2.165h2.174l1.352 2.166zm-29.62-2.16h11.546v2.174H5.253L6.79 12.07zm12.885 0h11.545l1.61 2.174H19.673V12.07zm11.373-8.717v7.376H19.674V1.34h9.366a2.01 2.01 0 012.007 2.012zm-24.08 0c0-1.11.899-2.012 2.006-2.012h9.367v9.388H6.966V3.353zM2.937 12.07h2.193l-1.402 2.165H1.582l1.356-2.165zm-.013 11.57H1.356v-8.05h1.569v8.05zm1.365-2.695v-4.694c0-.371.303-.67.67-.67h28.094c.326 0 .602.235.656.548v4.816H4.29zm32.35 2.696h-1.57V15.59h1.57v8.05z"/>
		</symbol>

		<symbol id="icon-brush">
			<path d="M47.5 30H40V17.5h7.5c.46 0 .833-.372.833-.832v-4.109L49.992.953A.833.833 0 0049.166 0H25.832a.833.833 0 00-.825.952l1.659 11.606v4.109c0 .46.373.833.833.833H35V30h-.834a2.5 2.5 0 100 5H35v1.666h-5.834l.778-11.666h.89c.46 0 .832-.373.832-.834v-3.333a.833.833 0 00-.833-.833h-5.896a5.845 5.845 0 00-2.951-4.27 5.833 5.833 0 10-11.1-3.18 8.32 8.32 0 00-9.174 7.45H.833a.833.833 0 00-.833.833v3.334c0 .46.373.833.833.833h.888l1.612 24.221c.03.44.394.78.834.779h45c.46 0 .833-.373.833-.834V32.501a2.5 2.5 0 00-2.5-2.5zM26.794 1.669H30v5h1.666v-5h1.667v1.666H35V1.668h5v2.5h1.666v-2.5h1.667v5H45v-5h3.206l-1.429 10H28.222l-1.428-10zm1.54 14.166v-2.5h18.332v2.5H28.334zm10 1.667V30h-1.668V17.5h1.667zM30 21.668v1.666H17.5v-1.666H30zM10.809 14.22c.229.028.456.069.681.12h.027c.978.23 1.891.678 2.673 1.308l1.048-1.295a8.374 8.374 0 00-2.695-1.445 4.156 4.156 0 117.584 2.75.833.833 0 00.416 1.25A4.167 4.167 0 0123.238 20h-6.571a.833.833 0 00-.834.833v7.5a.833.833 0 01-1.666 0v-1.666a2.5 2.5 0 00-5 0V32.5a.833.833 0 11-1.667 0V20.834a.833.833 0 00-.833-.833H3.389a6.65 6.65 0 017.42-5.78zm-9.142 9.114v-1.666h4.166v1.666H1.667zm21.666 15.833v9.167H4.947L3.39 25.001h2.442v7.5a2.5 2.5 0 105 0v-5.833a.833.833 0 011.667 0v1.666a2.5 2.5 0 005 0v-3.333h10.776L27.5 36.667h-1.667a2.5 2.5 0 00-2.5 2.5zm25 9.167h-2.5v-4.167h-1.666v4.167h-2.5v-4.167H40v4.167h-2.5v-4.167h-1.667v4.167h-2.5v-4.167h-1.666v4.167h-2.5v-4.167H27.5v4.167H25v-6.667h23.333v6.667zm0-8.333H25v-.834c0-.46.373-.833.833-.833h18.334a2.5 2.5 0 000-5h-10a.833.833 0 010-1.667H47.5c.46 0 .833.374.833.834V40zm-11.666-3.334v-1.666h1.666v1.666h-1.666zm3.333 0v-1.666h4.166a.833.833 0 010 1.666H40zM3.333 8.333V6.666H1.667v1.667H0V10h1.667v1.666h1.666V10H5V8.333H3.333z"/><path d="M47.5 23.333v-1.666h-1.667v1.666h-1.666V25h1.666v1.666H47.5V25h1.666v-1.667H47.5zM15.833 1.667V0h-1.667v1.667H12.5v1.666h1.666V5h1.667V3.333H17.5V1.667h-1.667zM31.666 8.334H30V10h1.666V8.334z"/>
		</symbol>

		<symbol id="icon-check" fill="none">
			<path d="M5.476 9.87l3.102 2.987 5.946-5.714" stroke-width="1.5"/><circle cx="10" cy="10" r="9.25" stroke-width="1.5"/>
		</symbol>

		<symbol id="icon-close">
			<path opacity=".5" d="M29.495 14.015a1 1 0 10-1.414-1.414l1.414 1.414zm-16.99 14.162a1 1 0 001.414 1.414l-1.414-1.415zM28.08 29.59a1 1 0 001.414-1.415l-1.414 1.415zM13.919 12.6a1 1 0 00-1.414 1.414l1.414-1.414zm14.162 0L12.505 28.176l1.414 1.415 15.576-15.576-1.414-1.414zm1.414 15.575L13.919 12.602l-1.414 1.414L28.08 29.59l1.414-1.415zM40 21c0 10.493-8.507 19-19 19v2c11.598 0 21-9.402 21-21h-2zM21 40C10.507 40 2 31.493 2 21H0c0 11.598 9.402 21 21 21v-2zM2 21C2 10.507 10.507 2 21 2V0C9.402 0 0 9.402 0 21h2zM21 2c10.493 0 19 8.507 19 19h2C42 9.402 32.598 0 21 0v2z"/>
		</symbol>

		<symbol id="icon-contract">
			<path d="M47.822 10.758l-1.212-.38c-.303-.075-.606-.15-.985-.15-1.363 0-2.575.908-3.03 2.196l-.682 2.046v-1.591c0-.227-.151-.455-.303-.606L29.186.227a.819.819 0 00-.53-.227H4.338c-.455 0-.758.303-.758.758v2.348H.777c-.455 0-.758.303-.758.758v45.378c0 .455.303.758.758.758h36.818c.455 0 .758-.303.758-.758v-2.348h2.803c.454 0 .757-.303.757-.758V35.91l2.121-2.879.076-.227 5.682-18.106c.606-1.667-.303-3.41-1.97-3.94zM29.413 2.576l9.924 9.545h-9.924V2.576zm7.425 45.909H1.534V4.62H3.58v41.515c0 .455.303.758.757.758h32.5v1.59zm3.636-3.106H5.095V1.515h22.803V12.88c0 .454.303.757.758.757h11.818v5.682l-3.56 11.212v.228l.15 9.62c0 .304.228.607.531.683.303.075.682 0 .833-.303l2.046-2.728v7.349zm-1.97-7.349l-.151-6.288 3.788 1.213-3.637 5.075zm9.925-23.788l-5.455 17.349-4.394-1.44 5.455-17.272c.303-.833 1.212-1.364 2.045-1.06l1.212.378c.91.227 1.44 1.212 1.136 2.045z"/><path d="M10.247 13.636h10.909c.454 0 .757-.303.757-.757V5.152c0-.455-.303-.758-.757-.758h-10.91c-.454 0-.757.303-.757.758v7.727c0 .379.379.757.758.757zm.757-7.727h9.394v6.212h-9.394V5.91zM8.731 20.758h23.03c.455 0 .758-.303.758-.758 0-.454-.303-.757-.757-.757H8.732c-.455 0-.758.303-.758.757 0 .455.303.758.757.758zM8.731 26.288h23.03c.455 0 .758-.303.758-.758 0-.454-.303-.757-.757-.757H8.732c-.455 0-.758.303-.758.758 0 .454.303.757.757.757zM8.731 31.818h23.03c.455 0 .758-.303.758-.757 0-.455-.303-.758-.757-.758H8.732c-.455 0-.758.303-.758.758 0 .454.303.757.757.757zM32.444 36.591c0-.455-.304-.758-.758-.758H8.73c-.454 0-.757.303-.757.758 0 .454.303.758.757.758h23.03c.38 0 .683-.38.683-.758zM34.944 41.364h-11.44c-.455 0-.757.303-.757.757 0 .455.303.758.757.758h11.364c.454 0 .757-.303.757-.758 0-.454-.303-.757-.681-.757z"/>
		</symbol>

		<symbol id="icon-cooking-tools">
			<path d="M23.438 4.688H25V7.03h-1.563V4.688zM7.813 4.688h1.562V7.03H7.812V4.688zM39.844 4.688h1.562V7.03h-1.562V4.688z"/><path d="M20.313 32.031v.592a7.174 7.174 0 01-2.115 5.106 8.727 8.727 0 00-2.573 6.21v3.717a.781.781 0 00.781.782h15.625a.781.781 0 00.782-.782V43.94a8.725 8.725 0 00-2.573-6.211 7.176 7.176 0 01-2.115-5.106v-.592a.781.781 0 00-.781-.781h-.73l1.51-23.387a.765.765 0 00.001-.05v-5.47a.781.781 0 00-.781-.78h-6.25a.781.781 0 00-.782.78v5.47l.002.05 1.509 23.387h-.73a.781.781 0 00-.78.781zm8.822 6.803a7.174 7.174 0 012.115 5.106v2.935H17.187V43.94a7.174 7.174 0 012.115-5.106 8.722 8.722 0 002.571-6.022h4.691a8.723 8.723 0 002.571 6.022zm-7.26-35.709h4.688v4.662L25.049 31.25h-1.66L21.875 7.787V3.125z"/><path d="M18.75 41.406h1.563v3.907H18.75v-3.907zM21.875 39.844h1.563v5.468h-1.563v-5.468zM25 39.844h1.563v5.468H25v-5.468zM28.125 41.406h1.563v3.907h-1.563v-3.907zM8.594 48.438a6.258 6.258 0 006.25-6.25V37.5a6.26 6.26 0 00-3.885-5.784L12.5 7.863a.765.765 0 00.001-.05v-5.47a.781.781 0 00-.781-.78h-6.25a.781.781 0 00-.782.78v5.47l.002.05 1.54 23.853A6.26 6.26 0 002.343 37.5v4.688a6.257 6.257 0 006.25 6.25zM6.25 7.788V3.124h4.688v4.662L9.42 31.307a6.09 6.09 0 00-1.653 0L6.25 7.786zM3.906 37.5a4.688 4.688 0 019.375 0v4.688a4.687 4.687 0 11-9.375 0V37.5z"/><path d="M11.719 42.188v-5.47h-1.563v5.47a1.564 1.564 0 01-1.562 1.562H7.03v1.563h1.563a3.128 3.128 0 003.125-3.126zM40.625 48.438a7.04 7.04 0 007.031-7.032v-1.562a3.128 3.128 0 00-3.125-3.125 1.564 1.564 0 01-1.562-1.551L44.53 7.857l.001-.045V2.345a.781.781 0 00-.781-.781H37.5a.781.781 0 00-.781.78v5.47l.001.044 1.56 27.31a1.564 1.564 0 01-1.561 1.552 3.128 3.128 0 00-3.125 3.125v1.562a7.039 7.039 0 007.031 7.032zm0-1.563a5.477 5.477 0 01-5.33-4.251c.44.227.928.345 1.424.345h7.812c.496 0 .984-.118 1.424-.345a5.477 5.477 0 01-5.33 4.251zm-2.344-43.75h4.688V7.79l-1.52 26.585H39.8L38.281 7.79V3.125zM36.72 38.281a3.13 3.13 0 003.026-2.343h1.76a3.13 3.13 0 003.026 2.343 1.563 1.563 0 010 3.125H36.72a1.562 1.562 0 110-3.125z"/>
		</symbol>

		<symbol id="icon-good-review">
			<path d="M15 26.667h2.5c.92 0 1.667-.747 1.667-1.667.404-.007.804.084 1.166.264 1.804.903 2.525 1.403 3.787 1.403h7.547a2.507 2.507 0 002.178-3.725 2.508 2.508 0 00.833-3.334 2.506 2.506 0 00.834-3.333 2.504 2.504 0 00-1.436-4.608H28.73A13.392 13.392 0 0030 6.083a2.75 2.75 0 00-5.35-.885 18.896 18.896 0 01-2.01 4.339 4.52 4.52 0 01-3.705 2.13 1.66 1.66 0 00-1.435-.834H15c-.92 0-1.667.746-1.667 1.667V25c0 .92.747 1.667 1.667 1.667zm9.027-16.205a20.58 20.58 0 002.206-4.74 1.083 1.083 0 012.1.361c0 2.334-.639 3.684-1.397 5.584h-1.103a.833.833 0 100 1.666h8.243a.833.833 0 01.666 1.428.794.794 0 01-.575.239h-2.5a.833.833 0 000 1.667h1.666a.833.833 0 010 1.666h-2.5a.833.833 0 100 1.667H32.5a.833.833 0 01.577 1.427.794.794 0 01-.577.24H30a.833.833 0 000 1.666h1.667a.833.833 0 010 1.667c-8.342 0-7.96.09-8.667-.264-1.803-.903-2.525-1.403-3.787-1.403-.083 0-.046.768-.046-10a6.203 6.203 0 004.86-2.871zM15 12.5h2.5V25H15V12.5zM45.394 36.446l-2.793-.423-1.257-2.661a1.48 1.48 0 00-2.688 0l-1.257 2.66-2.793.424a1.532 1.532 0 00-.834 2.583l2.043 2.084-.482 2.946a1.514 1.514 0 001.468 1.775c.5 0 .516-.078 3.199-1.552l2.49 1.368a1.5 1.5 0 002.177-1.592l-.485-2.948 2.043-2.083a1.533 1.533 0 00-.83-2.581zm-2.446 3.546a1.542 1.542 0 00-.416 1.329l.44 2.693c-3.477-1.911-2.5-1.896-5.946 0l.44-2.69a1.546 1.546 0 00-.416-1.334l-1.904-1.94 2.599-.394a1.495 1.495 0 001.126-.846L40 34.417l1.13 2.392a1.5 1.5 0 001.124.846l2.6.394-1.906 1.943zM30.394 36.446l-2.793-.423-1.257-2.661a1.48 1.48 0 00-2.688 0l-1.257 2.66-2.793.424a1.532 1.532 0 00-.834 2.583l2.043 2.084-.482 2.946a1.514 1.514 0 001.468 1.775c.5 0 .516-.078 3.199-1.552l2.49 1.368a1.5 1.5 0 002.177-1.592l-.485-2.948 2.043-2.083a1.532 1.532 0 00-.83-2.581zm-2.446 3.546a1.542 1.542 0 00-.416 1.329l.44 2.693c-3.477-1.911-2.5-1.896-5.946 0l.44-2.69a1.546 1.546 0 00-.416-1.334l-1.904-1.94 2.599-.394a1.495 1.495 0 001.126-.846L25 34.417l1.13 2.392a1.5 1.5 0 001.124.846l2.6.394-1.906 1.943zM15.394 36.446l-2.793-.423-1.257-2.661a1.48 1.48 0 00-2.688 0l-1.257 2.66-2.793.424a1.532 1.532 0 00-.833 2.583l2.042 2.084-.482 2.946a1.514 1.514 0 001.468 1.775c.5 0 .516-.078 3.199-1.552l2.49 1.368a1.5 1.5 0 002.177-1.592l-.485-2.948 2.043-2.083a1.533 1.533 0 00-.83-2.581zm-2.446 3.546a1.542 1.542 0 00-.416 1.329l.44 2.693c-3.477-1.911-2.5-1.896-5.946 0l.44-2.69a1.546 1.546 0 00-.416-1.334l-1.904-1.94 2.599-.394a1.495 1.495 0 001.126-.846L10 34.417l1.13 2.392a1.5 1.5 0 001.124.846l2.6.394-1.906 1.943z"/><path d="M46.667 0H3.333A3.333 3.333 0 000 3.333v43.334A3.333 3.333 0 003.333 50h43.334A3.333 3.333 0 0050 46.667V3.333A3.333 3.333 0 0046.667 0zM3.333 1.667h43.334c.92 0 1.666.746 1.666 1.666v25H1.667v-25c0-.92.746-1.666 1.666-1.666zm43.334 46.666H3.333c-.92 0-1.666-.746-1.666-1.666V30h46.666v16.667c0 .92-.746 1.666-1.666 1.666z"/>
		</symbol>

		<symbol id="icon-telegram">
			<path d="M.378 9.631c2.557-1.409 5.412-2.585 8.08-3.766 4.589-1.936 9.196-3.838 13.85-5.61.905-.3 2.532-.596 2.692.746-.087 1.9-.447 3.788-.693 5.676-.626 4.152-1.349 8.29-2.054 12.43-.243 1.378-1.97 2.092-3.075 1.21-2.656-1.794-5.332-3.57-7.954-5.406-.858-.873-.062-2.126.705-2.749 2.187-2.155 4.507-3.987 6.58-6.254.56-1.35-1.093-.212-1.638.137-2.994 2.063-5.916 4.252-9.073 6.066-1.612.888-3.492.13-5.104-.366C1.25 11.146-.869 10.544.377 9.63z"/>
		</symbol>

		<symbol id="icon-tiles">
			<rect width="3.947" height="3.947" rx="1" fill="#CCB094"/><rect x="5.526" width="3.947" height="3.947" rx="1" fill="#CCB094"/><rect x="11.053" width="3.947" height="3.947" rx="1" fill="#CCB094"/><rect y="5.526" width="3.947" height="3.947" rx="1" fill="#CCB094"/><rect x="5.526" y="5.526" width="3.947" height="3.947" rx="1" fill="#CCB094"/><rect x="11.053" y="5.526" width="3.947" height="3.947" rx="1" fill="#CCB094"/><rect y="11.053" width="3.947" height="3.947" rx="1" fill="#CCB094"/><rect x="5.526" y="11.053" width="3.947" height="3.947" rx="1" fill="#CCB094"/><rect x="11.053" y="11.053" width="3.947" height="3.947" rx="1" fill="#CCB094"/>
		</symbol>

		<symbol id="icon-travel">
			<path d="M48.594 2.254L45.73.536a.837.837 0 00-.786-.039L39.04 3.293 32.282.534a.837.837 0 00-.504-.04l-3.334.778a.833.833 0 00-.267 1.51l5.015 3.282-3.715 1.76-2.897-1.45a1.665 1.665 0 00-2.34 1.978l1.04 3.385a1.66 1.66 0 001.593 1.179h2.595c.1 0 .199-.018.292-.053l5.396-2.024-.684 6.152a.833.833 0 001.201.837l3.334-1.666a.836.836 0 00.417-.482l2.391-7.173 6.667-3.333a1.668 1.668 0 00.113-2.92zm-17.874.197l1.18-.275L37 4.259l-2.04.967-4.24-2.775zm10.042 4.72a.836.836 0 00-.418.481l-2.39 7.173-1.655.827.664-5.978a.83.83 0 00-.829-.925.846.846 0 00-.292.053l-6.525 2.447h-2.444l-1.038-3.385 3.26 1.63c.23.114.498.118.73.008l15.43-7.309 2.482 1.49-6.975 3.488zM47.5 33.749h-1.003l-5.28-8.924a.919.919 0 00-.051-.077c-.47-.626-1.218-.999-2-.999H4.636c-1.15 0-2.147.78-2.435 1.937L.624 33.79a.823.823 0 00-.624.791v7.5a4.171 4.171 0 004.167 4.167h1.958a5.003 5.003 0 004.708 3.333 5.003 5.003 0 004.709-3.333h20.375a5.003 5.003 0 004.708 3.333 5.003 5.003 0 004.708-3.333h.5A4.171 4.171 0 0050 42.082V36.25c0-1.378-1.122-2.5-2.5-2.5zm-13.333-8.333h5a.84.84 0 01.643.303l4.75 8.03H34.167v-8.333zm-10.834 0H32.5v8.333h-9.167v-8.333zm-10.833 0h9.167v8.333H12.5v-8.333zm-8.674.631a.833.833 0 01.809-.631h6.198v8.333H2.33l1.496-7.702zm7.007 21.869A3.337 3.337 0 017.5 44.582a3.337 3.337 0 013.333-3.333 3.337 3.337 0 013.334 3.333 3.337 3.337 0 01-3.334 3.334zm29.792 0a3.337 3.337 0 01-3.333-3.334 3.337 3.337 0 013.333-3.333 3.337 3.337 0 013.333 3.333 3.337 3.337 0 01-3.333 3.334zm7.708-5.834c0 1.379-1.121 2.5-2.5 2.5h-.208c0-2.757-2.242-5-5-5s-5 2.243-5 5h-1.458v-7.5H32.5v7.5h-9.167v-7.5h-1.666v7.5h-5.834c0-2.757-2.242-5-5-5-2.757 0-5 2.243-5 5H4.167a2.503 2.503 0 01-2.5-2.5v-6.666H47.5c.46 0 .833.373.833.833v5.833zM16.335 10.925a4.21 4.21 0 00-1.508 1.405l1.402.902a2.52 2.52 0 01.907-.845l-.801-1.462zM20 10.416h-1.667v1.667H20v-1.667zM26.457 17.344l-.583 1.561c.39.146.741.39 1.016.708l1.26-1.093a4.2 4.2 0 00-1.692-1.176zM29.073 20.365l-1.63.352c.038.173.057.352.057.532v.954h1.667v-.954c0-.297-.032-.595-.095-.884zM24.524 17.082h-1.666v1.667h1.666v-1.666zM23.333 10.416h-1.666v1.667h1.666v-1.667zM21.19 17.082h-1.666v1.667h1.667v-1.666zM15.833 14.582c0-.06.002-.12.007-.178l-1.662-.12a4.124 4.124 0 00.366 2.03l1.514-.693a2.481 2.481 0 01-.225-1.039zM16.837 16.585l-1 1.333a4.15 4.15 0 001.906.789l.233-1.65a2.484 2.484 0 01-1.14-.472z"/>
		</symbol>

		<symbol id="icon-viber">
			<path d="M17.63 9.318c-.096-.772-.333-1.377-.754-1.914-.547-.69-1.245-1.104-2.28-1.35-.674-.163-.946-.144-1.19.078-.227.209-.272.627-.098.898.122.197.263.267.654.344.522.096.882.22 1.21.408.696.402 1.02 1.03 1.055 2.048.016.478.057.625.224.795.31.31.86.25 1.094-.121.085-.14.098-.201.107-.526.006-.2-.002-.5-.023-.66z"/><path d="M20.355 10.188c-.137-2.364-1.062-4.265-2.716-5.603-.932-.751-2.059-1.268-3.294-1.52-.452-.09-1.285-.162-1.428-.12a.877.877 0 00-.41.316c-.09.143-.11.463-.034.648.124.309.354.418.999.474.994.087 2.02.437 2.794.954a5.86 5.86 0 012.043 2.34c.392.813.634 1.984.627 3.034-.002.379.057.593.21.75.23.24.566.293.862.133.328-.172.405-.475.347-1.406zM23.37 19.289a2.593 2.593 0 00-.23-.463c-.486-.733-3.094-2.775-4.397-3.442-.743-.382-1.294-.51-1.703-.39-.439.123-.67.328-1.406 1.242-.297.367-.601.71-.682.764-.2.14-.593.251-.87.251-.644-.004-1.812-.42-2.71-.968-.697-.425-1.59-1.185-2.276-1.937-.81-.884-1.36-1.663-1.796-2.543-.562-1.13-.705-1.822-.47-2.327.058-.127.135-.262.17-.305.034-.038.397-.336.797-.66.786-.625.913-.768 1.06-1.196.185-.544.135-1.1-.15-1.66-.22-.424-.794-1.35-1.21-1.948C6.946 2.92 5.574 1.237 5.3 1.01 4.807.609 4.176.539 3.478.81c-.736.285-2.115 1.396-2.705 2.172-.531.702-.736 1.2-.766 1.856-.027.54.019.764.304 1.454 2.23 5.418 5.56 9.744 10.133 13.178 2.389 1.794 4.866 3.16 7.436 4.094 1.5.544 2.15.571 2.917.124.324-.193 1.125-1.015 1.572-1.613.74-.996 1.013-1.455 1.09-1.822.054-.25.012-.686-.088-.964z"/><path d="M23.13 10.73a10.762 10.762 0 00-.744-3.655c-.463-1.203-.932-1.988-1.818-3.05-.837-.994-1.488-1.562-2.52-2.195C16.61.949 14.859.366 12.897.12c-.67-.085-.82-.08-1.026.058-.398.26-.393.907.006 1.162.133.082.25.111.785.181.822.111 1.35.215 1.978.386 2.459.673 4.35 2.047 5.614 4.086 1.058 1.7 1.497 3.4 1.434 5.572-.021.734-.006.863.107 1.04.215.328.781.393 1.072.12.181-.166.215-.29.25-.919.018-.328.021-.811.014-1.076z"/>
		</symbol>

		<symbol id="icon-wechat">
			<g fill-rule="evenodd" clip-rule="evenodd"><path d="M22.723 8.096c-.159-.009-.319-.01-.48-.01-5.748 0-10.41 3.905-10.41 8.725 0 .789.129 1.553.363 2.28a13.495 13.495 0 01-4.384-.464l-.194-.056-4.132 2.104 1.104-3.458-.104-.067C1.758 15.404 0 12.653 0 9.558 0 4.279 5.116 0 11.428 0c5.717 0 10.454 3.51 11.295 8.096zM7.451 7.82c-.886 0-1.605-.697-1.605-1.554 0-.859.719-1.553 1.605-1.553.887 0 1.607.694 1.607 1.553 0 .857-.72 1.554-1.607 1.554zm7.954-3.107c.886 0 1.604.694 1.604 1.553 0 .857-.718 1.554-1.604 1.554-.887 0-1.604-.697-1.604-1.554 0-.859.717-1.553 1.604-1.553z"/><path d="M22.33 24.942c-5.333 0-9.657-3.615-9.657-8.075 0-4.458 4.324-8.073 9.657-8.073 5.33 0 9.653 3.615 9.653 8.073 0 2.616-1.487 4.94-3.79 6.415l-.089.056.933 2.923-3.489-1.78s-.11.034-.165.048a11.35 11.35 0 01-3.053.413zm-4.717-10.856c0-.723.608-1.312 1.356-1.312.75 0 1.357.589 1.357 1.312 0 .726-.608 1.315-1.357 1.315-.748 0-1.356-.589-1.356-1.315zm6.719 0c0-.723.606-1.312 1.355-1.312.75 0 1.356.589 1.356 1.312 0 .726-.606 1.315-1.356 1.315-.749 0-1.355-.589-1.355-1.315z"/></g>
		</symbol>

		<symbol id="icon-WhatsApp">
			<path fill-rule="evenodd" clip-rule="evenodd" d="M14.391 28.552h-.006c-2.388 0-4.735-.6-6.82-1.736L0 28.8l2.025-7.395A14.245 14.245 0 01.12 14.27C.123 6.402 6.525 0 14.39 0c3.819.002 7.402 1.488 10.096 4.185a14.184 14.184 0 014.176 10.097c-.003 7.866-6.402 14.267-14.27 14.27zm-6.475-4.32l.433.257a11.845 11.845 0 006.037 1.653h.005c6.538 0 11.859-5.32 11.862-11.861a11.79 11.79 0 00-3.471-8.392 11.78 11.78 0 00-8.386-3.479c-6.543 0-11.864 5.321-11.867 11.861 0 2.241.626 4.424 1.814 6.313l.282.448-1.199 4.378 4.49-1.178zm13.176-6.878c.25.12.417.201.489.321.089.149.089.863-.208 1.696s-1.722 1.593-2.407 1.695c-.614.092-1.392.13-2.246-.141a20.476 20.476 0 01-2.033-.751c-3.343-1.444-5.602-4.684-6.029-5.296a4.37 4.37 0 00-.062-.088l-.003-.004c-.189-.252-1.453-1.94-1.453-3.685 0-1.643.806-2.504 1.178-2.9l.07-.075a1.31 1.31 0 01.95-.446c.238 0 .476.002.684.012.025.002.052.002.08.001.208 0 .467-.002.722.612l.394.955c.307.747.646 1.573.706 1.692.089.179.148.387.03.625-.019.036-.035.07-.05.101-.09.183-.156.317-.307.494-.06.07-.121.144-.183.22-.123.149-.245.298-.352.405-.179.177-.364.37-.156.727.207.357.923 1.525 1.983 2.47a9.208 9.208 0 002.632 1.664c.098.043.178.077.236.106.356.179.564.149.772-.089.208-.238.892-1.041 1.13-1.398.237-.357.475-.298.802-.179.327.12 2.08.982 2.436 1.16l.195.096z"/>
		</symbol>

		<symbol id="icon-arrow-slider-left">
			<circle cx="34.5" cy="34.5" r="34" fill="#fff" fill-opacity=".8" stroke="#D6B38F"/><path d="M55 34.5H12m43 0L43.866 38M55 34.5L43.866 31" stroke="#D6B38F" stroke-width="1.5"/>
		</symbol>

		<symbol id="icon-arrow-slider-right">
			<circle cx="34.5" cy="34.5" r="34" fill="#fff" fill-opacity=".8" stroke="#D6B38F"/><path d="M55 34.5H12m43 0L43.866 38M55 34.5L43.866 31" stroke="#D6B38F" stroke-width="1.5"/>
		</symbol>

		<symbol id="icon-search">
			<path d="M27.6415 26.4993L21.0837 19.9429C22.8428 17.921 23.9079 15.2829 23.9079 12.3995C23.9079 6.05255 18.7442 0.895996 12.4018 0.895996C6.05344 0.895996 0.895752 6.05853 0.895752 12.3995C0.895752 18.7405 6.05942 23.9031 12.4018 23.9031C15.2858 23.9031 17.9245 22.8383 19.9469 21.0795L26.5047 27.6359C26.6602 27.7914 26.8697 27.8752 27.0731 27.8752C27.2765 27.8752 27.4859 27.7974 27.6415 27.6359C27.9527 27.3248 27.9527 26.8104 27.6415 26.4993ZM2.50528 12.3995C2.50528 6.94388 6.94496 2.51116 12.3958 2.51116C17.8527 2.51116 22.2864 6.94986 22.2864 12.3995C22.2864 17.8492 17.8527 22.2939 12.3958 22.2939C6.94496 22.2939 2.50528 17.8552 2.50528 12.3995Z" fill="#D6B38F"/>
		</symbol>

		<symbol id="icon-close-zoom">
			<rect width="25.264" height="2.5264" rx="1.2632" transform="matrix(0.701005 0.713156 -0.701005 0.713156 1.771 0.181152)" fill="#E6D1BC"/>
			<rect width="25.264" height="2.5264" rx="1.2632" transform="matrix(0.701006 -0.713155 0.701006 0.713155 0.518799 18.0171)" fill="#E6D1BC"/>
		</symbol>

		<symbol id="icon-">

		</symbol>
</svg>
